<svg width="247" height="217" viewBox="0 0 247 217" fill="none" xmlns="http://www.w3.org/2000/svg">
<path d="M205.683 197.705C193.52 204.865 177.796 201.81 163.524 203.373C151.463 204.694 140.187 209.427 128.642 212.95C117.097 216.472 104.447 218.785 92.9209 215.208C85.0034 212.751 78.3258 207.727 70.8749 204.218C61.8836 199.984 51.8918 198.009 42.5089 194.599C33.1259 191.188 23.8623 185.844 19.5062 177.354C14.2679 167.144 17.2785 155.015 15.2985 143.842C13.0639 131.232 4.56627 120.344 1.00956 108.003C-1.5033 99.2844 1.10395 88.9957 4.14053 80.5354C7.34922 71.5956 16.2689 61.5518 24.8639 56.3498C27.668 54.6527 30.4374 52.9525 33.0858 51.0326C34.2462 50.1914 40.3526 46.5115 40.3526 45.1793C47.2085 38.9963 51.3238 31.1116 57.2814 24.2644C63.463 17.1599 72.511 12.5568 82.0005 10.2993C90.5931 8.22717 99.3838 7.08147 108.222 6.88183C117.713 6.73437 126.918 7.5614 136.076 4.50722C137.999 3.866 139.864 3.08125 141.782 2.42396C154.73 -2.01317 172.069 -0.0698025 184.173 5.90422C188.792 8.18378 192.656 11.578 196.381 15.0027C201.002 19.0604 205.04 23.7344 208.382 28.8928C211.441 33.8688 212.409 39.808 216.306 44.4786C218.923 47.6151 221.498 51.0606 224.092 54.0858C228.1 58.7605 234.272 61.007 238.084 66.101C241.92 71.2285 243.745 77.4893 245.008 83.5572C246.625 91.326 247.531 99.2904 246.665 107.164C245.278 119.761 238.201 129.126 230.968 139.377C228.558 142.792 226.135 146.327 225.21 150.326C224.839 152.244 224.612 154.187 224.53 156.138C224.084 161.824 222.555 167.062 221.403 172.572C219.38 182.249 214.953 192.248 205.683 197.705Z" fill="#EFF2FD"/>
<path d="M57.4229 85.7289L68.6931 91.0553L178.223 108.262L193.929 73.3716C181.067 78.5288 147.473 80.4542 118.492 81.8117C87.0886 83.2826 54.0566 82.987 54.0566 82.987L57.4229 85.7289Z" fill="#B57D92"/>
<path d="M174.744 11.6217L174.078 16.6663L165.072 84.8819L156.884 146.927L72.7693 146.952L71.0053 96.0477L70.9933 95.6368L67.6758 0L174.744 11.6217Z" fill="#FFD7BD"/>
<path d="M174.092 16.5391L174.079 16.666L165.073 84.8817L71.0062 96.0475L69.668 96.2064L70.9942 95.6366L90.1531 87.4009L88.866 86.7181L85.4923 24.8817L174.092 16.5391Z" fill="#ECB891"/>
<path d="M90.1543 27.896L94.7079 159.352L178.828 159.327L193.203 17.186L90.1543 27.896Z" fill="#FFEBDD"/>
<path d="M177.831 32.0121L102.184 38.7187C101.777 38.7547 101.4 38.9458 101.131 39.2523C100.862 39.5588 100.722 39.957 100.74 40.3641C100.758 40.7711 100.932 41.1556 101.227 41.4375C101.522 41.7193 101.914 41.8769 102.322 41.8773C102.369 41.8773 102.416 41.8756 102.464 41.8713L178.112 35.1646C178.319 35.1463 178.521 35.0873 178.706 34.9911C178.89 34.8949 179.054 34.7634 179.188 34.604C179.321 34.4446 179.422 34.2606 179.484 34.0623C179.547 33.864 179.569 33.6554 179.551 33.4484C179.533 33.2414 179.473 33.0401 179.377 32.8559C179.281 32.6716 179.149 32.5082 178.989 32.3748C178.83 32.2414 178.645 32.1407 178.446 32.0785C178.248 32.0163 178.039 31.9937 177.831 32.0121H177.831Z" fill="#F4C6B1"/>
<path d="M176.553 54.9578L100.829 60.7483C100.421 60.7796 100.04 60.9676 99.7673 61.2729C99.4946 61.5782 99.3509 61.977 99.3664 62.3857C99.3818 62.7945 99.5552 63.1813 99.8502 63.4652C100.145 63.7491 100.539 63.908 100.949 63.9086C100.989 63.9086 101.03 63.9069 101.072 63.9041L176.795 58.1136C177.003 58.0978 177.205 58.0412 177.391 57.9473C177.577 57.8533 177.742 57.7237 177.878 57.566C178.013 57.4082 178.116 57.2254 178.181 57.0278C178.246 56.8303 178.271 56.622 178.255 56.4148C178.239 56.2076 178.183 56.0055 178.088 55.8201C177.994 55.6348 177.864 55.4697 177.706 55.3344C177.548 55.1991 177.365 55.0962 177.167 55.0316C176.969 54.967 176.761 54.9419 176.553 54.9578L176.553 54.9578Z" fill="#F4C6B1"/>
<path d="M140.279 48.9115L176.777 45.6757C176.984 45.6577 177.187 45.599 177.372 45.503C177.556 45.4069 177.721 45.2754 177.855 45.116C177.989 44.9565 178.09 44.7723 178.152 44.5738C178.215 44.3752 178.237 44.1664 178.219 43.9591C178.201 43.7518 178.141 43.5502 178.045 43.3658C177.948 43.1814 177.816 43.0178 177.656 42.8845C177.496 42.7511 177.311 42.6505 177.112 42.5885C176.913 42.5265 176.704 42.5043 176.496 42.5231L139.998 45.7589C139.591 45.7949 139.214 45.9861 138.946 46.2925C138.677 46.599 138.536 46.9972 138.554 47.4042C138.572 47.8113 138.747 48.1957 139.041 48.4776C139.336 48.7595 139.728 48.9171 140.136 48.9175C140.183 48.9175 140.231 48.9159 140.279 48.9115Z" fill="#F4C6B1"/>
<path d="M100.986 52.3885C101.033 52.3885 101.081 52.3869 101.128 52.3825L133.507 49.5118C133.715 49.4934 133.917 49.4344 134.101 49.3382C134.286 49.242 134.449 49.1105 134.583 48.9511C134.717 48.7917 134.818 48.6076 134.88 48.4094C134.942 48.2111 134.965 48.0025 134.946 47.7955C134.928 47.5885 134.869 47.3871 134.773 47.2029C134.676 47.0187 134.544 46.8553 134.385 46.7219C134.225 46.5885 134.04 46.4879 133.842 46.4256C133.643 46.3634 133.434 46.3408 133.227 46.3592L100.848 49.23C100.441 49.2659 100.064 49.4571 99.7952 49.7635C99.5262 50.07 99.386 50.4682 99.4039 50.8753C99.4217 51.2823 99.5962 51.6668 99.8909 51.9487C100.186 52.2306 100.578 52.3881 100.986 52.3885H100.986Z" fill="#F4C6B1"/>
<path d="M176.506 65.9374L125.683 70.0816C125.275 70.1148 124.896 70.3042 124.625 70.61C124.354 70.9158 124.211 71.3144 124.228 71.7225C124.244 72.1305 124.418 72.5165 124.713 72.7995C125.008 73.0826 125.401 73.2409 125.811 73.2413C125.854 73.2413 125.897 73.2397 125.941 73.2364L176.764 69.0922C177.183 69.058 177.571 68.859 177.844 68.539C178.116 68.219 178.249 67.8042 178.215 67.3859C178.181 66.9675 177.982 66.5799 177.661 66.3082C177.34 66.0366 176.925 65.9032 176.506 65.9374Z" fill="#F4C6B1"/>
<path d="M119.211 71.0169L100.848 72.645C100.441 72.681 100.064 72.8722 99.7951 73.1787C99.5261 73.4852 99.386 73.8834 99.4039 74.2904C99.4217 74.6975 99.5962 75.0819 99.8909 75.3638C100.186 75.6457 100.578 75.8032 100.986 75.8036C101.033 75.8036 101.081 75.802 101.128 75.7976L119.491 74.1695C119.908 74.1293 120.291 73.9265 120.559 73.6052C120.826 73.2839 120.955 72.8702 120.918 72.4542C120.881 72.0382 120.681 71.6537 120.361 71.3845C120.041 71.1153 119.628 70.9831 119.211 71.0169V71.0169Z" fill="#F4C6B1"/>
<path d="M193.927 73.3721L189.938 114.194L184.641 168.372L60.8508 168.739L60.2963 161.764L54.0547 82.9845C135.042 101.628 193.927 73.3721 193.927 73.3721Z" fill="#FFC652"/>
<path d="M192.471 88.2695L184.641 168.372L60.8506 168.739L58.1543 134.826C58.1543 134.826 165.415 144.064 192.471 88.2695Z" fill="#F7A845"/>
<path d="M72.4325 114.764C72.2539 114.764 72.0788 114.714 71.9273 114.62C71.7757 114.525 71.6537 114.391 71.5752 114.23C71.4966 114.07 71.4645 113.891 71.4827 113.714C71.5009 113.537 71.5685 113.368 71.6779 113.227C73.1742 111.303 74.5226 109.27 75.7117 107.143C74.6037 107.235 73.4894 107.071 72.455 106.664C71.4205 106.257 70.4937 105.618 69.7462 104.797C68.8681 103.77 68.3397 102.492 68.2371 101.146C68.1346 99.8003 68.4632 98.4567 69.1756 97.3095C69.8612 96.3474 70.753 95.5498 71.7861 94.9746C74.2072 93.4667 77.0855 92.864 79.9096 93.2737C81.3435 93.4975 82.7078 94.0432 83.8997 94.8697C85.0915 95.6963 86.0798 96.782 86.7901 98.0452C89.0214 102.275 87.1643 107.356 84.1759 110.19C81.4436 112.78 77.5205 114.318 72.5171 114.761C72.4884 114.763 72.4599 114.764 72.4325 114.764ZM80.7611 96.6495C80.8529 96.6494 80.9442 96.6627 81.0321 96.6892C81.1524 96.7245 81.2645 96.7832 81.362 96.8618C81.4595 96.9405 81.5404 97.0376 81.6003 97.1475C81.6601 97.2575 81.6976 97.3782 81.7106 97.5026C81.7236 97.6271 81.7118 97.7529 81.676 97.8728C80.1192 103.134 77.7056 108.104 74.5321 112.583C77.6233 112.182 80.5237 110.867 82.8607 108.808C85.6912 106.123 86.6546 101.878 85.1007 98.9335C84.5304 97.9293 83.7391 97.0674 82.7865 96.4128C81.8339 95.7582 80.7448 95.3279 79.6013 95.1545C77.2236 94.8178 74.8031 95.3325 72.7694 96.6073C71.9789 97.041 71.2935 97.6429 70.7618 98.3703C70.2829 99.1704 70.0668 100.1 70.1437 101.029C70.2206 101.958 70.5867 102.839 71.1907 103.55C71.8494 104.258 72.6869 104.775 73.6152 105.048C74.5435 105.321 75.5283 105.34 76.4663 105.102C76.5752 105.073 76.6887 105.065 76.8007 105.078C78.0372 102.589 79.0562 99.9967 79.8462 97.3318C79.9045 97.1348 80.0252 96.9619 80.1901 96.8389C80.355 96.716 80.5553 96.6495 80.7611 96.6495Z" fill="white"/>
<path d="M89.8963 114.185C89.3449 114.187 88.799 114.074 88.294 113.854C87.6999 113.609 87.1977 113.185 86.8582 112.64V112.639C86.5341 111.921 86.3853 111.136 86.424 110.349C86.4626 109.562 86.6876 108.795 87.0805 108.112C87.4734 107.428 88.023 106.848 88.6842 106.417C89.3455 105.987 90.0995 105.719 90.8845 105.635H90.8932C91.4923 105.619 92.0831 105.778 92.5923 106.093C93.1015 106.409 93.5066 106.866 93.7573 107.41C94.1177 108.252 94.2551 109.173 94.1563 110.084C94.0574 110.995 93.7257 111.866 93.1929 112.612C92.7982 113.105 92.2966 113.504 91.7256 113.776C91.1546 114.048 90.5292 114.188 89.8963 114.185ZM88.5016 111.671C88.6414 111.87 88.8374 112.023 89.0647 112.11C89.5153 112.288 90.0106 112.32 90.4802 112.201C90.9499 112.082 91.3701 111.819 91.6814 111.448C91.9984 110.984 92.197 110.451 92.2598 109.893C92.3226 109.335 92.2478 108.771 92.0418 108.248C91.9466 108.026 91.7845 107.838 91.5778 107.711C91.3712 107.585 91.1302 107.525 90.8883 107.541H90.8845C90.4251 107.594 89.9866 107.762 89.6099 108.03C89.2332 108.297 88.9306 108.656 88.7303 109.072C88.475 109.451 88.3201 109.888 88.2801 110.342C88.2401 110.797 88.3163 111.254 88.5016 111.671V111.671Z" fill="white"/>
<path d="M164.365 115.139C164.127 115.139 163.898 115.05 163.722 114.89C163.546 114.729 163.437 114.509 163.415 114.273C163.363 113.706 163.354 113.138 163.358 112.57C162.833 113.46 162.042 114.163 161.096 114.582C160.661 114.741 160.198 114.804 159.736 114.767C159.275 114.73 158.828 114.593 158.424 114.367C158.078 114.186 157.768 113.945 157.508 113.654C157.159 113.955 156.746 114.175 156.301 114.298C155.856 114.42 155.389 114.442 154.934 114.362C154.517 114.266 154.131 114.065 153.815 113.777C153.498 113.49 153.261 113.126 153.125 112.721C152.622 113.265 151.99 113.674 151.286 113.909C150.583 114.144 149.831 114.197 149.101 114.063C148.41 113.9 147.784 113.533 147.305 113.009C147 113.462 146.578 113.824 146.083 114.057C145.588 114.289 145.04 114.384 144.496 114.33C143.954 114.28 143.435 114.09 142.99 113.778C142.545 113.467 142.189 113.044 141.957 112.553C141.584 111.75 141.466 110.851 141.62 109.979C140.569 110.377 139.424 110.458 138.327 110.212C138.319 110.319 138.311 110.424 138.306 110.531L138.413 112.841C138.425 113.086 138.342 113.326 138.181 113.511C138.02 113.696 137.794 113.812 137.55 113.835C137.306 113.858 137.062 113.787 136.869 113.635C136.677 113.483 136.55 113.264 136.515 113.021C136.485 112.818 136.46 112.613 136.442 112.408C136.086 112.798 135.651 113.107 135.165 113.314C134.736 113.524 134.259 113.615 133.783 113.579C133.307 113.543 132.85 113.381 132.458 113.109C132.114 112.856 131.829 112.532 131.621 112.159C131.366 112.47 131.052 112.727 130.697 112.916C130.342 113.104 129.952 113.22 129.551 113.257C129.248 113.269 128.945 113.23 128.655 113.141C128.195 113.044 127.766 112.836 127.406 112.535C127.046 112.233 126.765 111.848 126.589 111.413C126.109 112.022 125.506 112.523 124.819 112.883C124.382 113.145 123.877 113.275 123.368 113.258C122.858 113.24 122.364 113.075 121.946 112.783C121.755 112.644 121.583 112.48 121.434 112.297C121.02 112.897 120.464 113.387 119.815 113.723C119.167 114.058 118.445 114.23 117.715 114.221C117.329 114.214 116.952 114.109 116.619 113.915C116.286 113.721 116.009 113.446 115.813 113.114C115.76 113.013 115.716 112.908 115.681 112.8C114.808 113.558 113.671 113.941 112.516 113.868C111.997 113.851 111.491 113.705 111.043 113.443C110.595 113.181 110.219 112.813 109.949 112.37C109.824 112.154 109.724 111.926 109.651 111.687L109.559 111.851C109.23 112.533 108.763 113.14 108.187 113.632C107.793 113.959 107.309 114.157 106.798 114.2C106.288 114.242 105.777 114.126 105.335 113.868C104.942 113.574 104.631 113.184 104.433 112.736C104.235 112.288 104.155 111.796 104.202 111.308C104.133 111.397 104.062 111.485 103.991 111.572C103.125 112.643 102.079 113.012 101.195 112.566C100.906 112.398 100.66 112.165 100.478 111.884C100.297 111.604 100.184 111.284 100.15 110.952C99.4121 112.299 98.1951 113.322 96.739 113.818C96.33 113.97 95.8869 114.008 95.458 113.926C95.0291 113.845 94.6307 113.648 94.3063 113.356C94.0741 113.112 93.9173 112.806 93.8547 112.476C93.7921 112.145 93.8263 111.803 93.9533 111.491C94.0534 111.218 94.2325 110.98 94.468 110.809C94.7034 110.637 94.9845 110.538 95.2759 110.526C95.4521 110.52 95.6265 110.563 95.7797 110.65C95.9329 110.737 96.059 110.865 96.144 111.019C96.2289 111.173 96.2695 111.348 96.2611 111.524C96.2527 111.7 96.1956 111.87 96.0964 112.015C96.1312 112.007 96.1697 111.998 96.2095 111.986C97.3262 111.536 98.2293 110.678 98.7354 109.587C99.0325 109.046 99.2836 108.48 99.5347 107.916C99.8599 107.142 100.235 106.391 100.657 105.665C100.778 105.467 100.966 105.32 101.188 105.25C101.41 105.181 101.649 105.195 101.861 105.289C102.073 105.383 102.244 105.551 102.341 105.762C102.438 105.973 102.454 106.211 102.388 106.433C102 107.733 101.871 109.096 102.008 110.445C102.018 110.589 102.047 110.73 102.094 110.865C102.098 110.783 102.288 110.644 102.506 110.375C103.8 108.777 104.907 107.036 105.805 105.186C105.893 105.005 106.036 104.855 106.214 104.76C106.392 104.665 106.596 104.629 106.796 104.657C106.997 104.684 107.183 104.775 107.328 104.915C107.473 105.056 107.57 105.238 107.605 105.437C107.681 106.222 107.482 107.009 107.043 107.665C106.436 108.776 106.116 110.019 106.112 111.284C106.116 111.887 106.25 112.189 106.374 112.269C106.486 112.301 106.605 112.304 106.718 112.278C106.832 112.252 106.937 112.198 107.024 112.12C107.387 111.78 107.681 111.374 107.891 110.924L109.262 108.463C109.792 107.175 110.804 106.143 112.082 105.586C112.092 105.581 112.101 105.576 112.11 105.57C112.751 105.213 113.469 105.018 114.202 105C114.936 104.982 115.662 105.142 116.32 105.467C116.445 105.412 116.582 105.388 116.719 105.398C116.966 105.409 117.2 105.515 117.37 105.694C117.54 105.873 117.635 106.111 117.633 106.358C117.633 106.432 117.632 106.509 117.632 106.587C117.697 106.723 117.73 106.872 117.727 107.023C117.724 107.173 117.685 107.321 117.614 107.454C117.599 107.966 117.556 108.477 117.486 108.984C117.456 109.948 117.451 110.914 117.472 111.875C117.47 111.993 117.48 112.112 117.503 112.228C117.608 112.286 117.725 112.317 117.844 112.32C118.948 112.408 119.96 111.324 120.487 110.231C120.551 110.097 120.612 109.959 120.671 109.821C120.676 109.654 120.691 109.488 120.716 109.323C120.984 108.041 121.523 106.832 122.299 105.776C122.433 105.565 122.645 105.414 122.889 105.358C123.133 105.301 123.389 105.342 123.603 105.472C123.817 105.602 123.971 105.811 124.032 106.054C124.093 106.296 124.056 106.553 123.929 106.768C123.542 107.489 123.228 108.248 122.992 109.031C122.862 109.411 122.733 109.79 122.589 110.164C122.592 110.366 122.636 110.565 122.718 110.749C122.799 110.934 122.918 111.1 123.065 111.238C123.142 111.294 123.384 111.469 123.964 111.179C125.326 110.499 126.277 108.429 127.04 106.767C127.207 106.405 127.365 106.06 127.519 105.746C127.574 105.633 127.651 105.533 127.745 105.45C127.839 105.367 127.948 105.303 128.067 105.262C128.186 105.222 128.312 105.205 128.437 105.213C128.562 105.22 128.685 105.253 128.797 105.308C128.91 105.363 129.011 105.44 129.094 105.534C129.177 105.628 129.24 105.737 129.281 105.856C129.322 105.974 129.338 106.1 129.33 106.225C129.322 106.35 129.29 106.472 129.234 106.585V106.585C128.965 107.239 128.774 107.924 128.666 108.623C128.585 109.027 128.506 109.422 128.41 109.784C128.139 110.813 128.465 111.112 129.161 111.304C129.26 111.33 129.361 111.347 129.463 111.354C129.778 111.34 130.362 110.886 131.057 109.689C131.059 109.627 131.064 109.565 131.069 109.504C131.324 107.914 131.945 106.406 132.884 105.097C133.003 104.904 133.188 104.759 133.405 104.689C133.621 104.62 133.856 104.63 134.066 104.717C134.276 104.805 134.448 104.965 134.55 105.168C134.652 105.371 134.679 105.603 134.624 105.824C134.259 107.295 133.723 108.718 133.026 110.065C133.008 110.099 132.99 110.134 132.972 110.169C132.984 110.695 133.2 111.196 133.576 111.566C133.661 111.625 133.888 111.785 134.414 111.562C135.406 111.138 135.79 109.876 136.234 108.413C136.521 107.058 137.143 105.796 138.045 104.743C138.207 104.585 138.421 104.49 138.647 104.474C138.873 104.458 139.097 104.524 139.28 104.658C139.462 104.792 139.59 104.987 139.642 105.207C139.694 105.427 139.665 105.659 139.562 105.86C139.158 106.645 138.847 107.474 138.634 108.33C139.116 108.457 139.618 108.486 140.11 108.416C140.603 108.346 141.077 108.178 141.503 107.921C141.929 107.665 142.3 107.325 142.592 106.923C142.884 106.521 143.093 106.065 143.205 105.581C143.234 105.459 143.286 105.344 143.359 105.242C143.432 105.14 143.524 105.054 143.631 104.988C143.737 104.922 143.855 104.877 143.979 104.857C144.103 104.836 144.229 104.84 144.351 104.869C144.474 104.897 144.589 104.949 144.691 105.022C144.793 105.095 144.879 105.187 144.946 105.293C145.012 105.399 145.056 105.518 145.077 105.641C145.097 105.765 145.093 105.891 145.065 106.013V106.013L145.059 106.037C144.86 106.77 144.593 107.483 144.261 108.165C143.673 109.477 143.164 110.609 143.693 111.758C143.783 111.942 143.919 112.1 144.087 112.218C144.255 112.336 144.45 112.409 144.655 112.432C145.725 112.483 146.215 111.181 146.409 110.351C146.427 110.22 146.455 110.09 146.492 109.963C146.559 109.728 146.715 109.527 146.927 109.403C147.138 109.28 147.389 109.242 147.628 109.298C147.867 109.354 148.075 109.499 148.209 109.704C148.343 109.909 148.393 110.158 148.348 110.398C148.331 110.491 148.313 110.584 148.293 110.675C148.281 110.94 148.35 111.202 148.49 111.427C148.601 111.618 148.75 111.785 148.927 111.918C149.103 112.052 149.304 112.149 149.519 112.205C149.983 112.266 150.456 112.2 150.886 112.015C151.316 111.829 151.688 111.531 151.962 111.151C152.094 110.961 152.2 110.754 152.276 110.535C151.954 110.532 151.633 110.489 151.321 110.408C150.943 110.312 150.589 110.138 150.283 109.897C149.976 109.656 149.723 109.353 149.541 109.009C149.337 108.587 149.254 108.116 149.303 107.65C149.334 107.063 149.526 106.495 149.86 106.01C150.194 105.525 150.655 105.141 151.193 104.901C151.66 104.634 152.206 104.541 152.735 104.64C153.264 104.738 153.74 105.021 154.079 105.438C154.179 105.571 154.266 105.713 154.337 105.864C154.524 105.879 154.702 105.949 154.85 106.065C154.997 106.181 155.107 106.337 155.166 106.515V106.516C155.297 106.93 155.339 107.367 155.292 107.799C155.244 108.23 155.106 108.647 154.888 109.022C154.743 109.859 154.71 110.711 154.787 111.557C154.833 111.875 154.965 112.418 155.344 112.501C155.733 112.6 156.408 112.274 156.892 111.526C156.993 111.37 157.137 111.247 157.307 111.172C157.477 111.097 157.666 111.073 157.849 111.103C158.033 111.133 158.204 111.217 158.34 111.342C158.477 111.468 158.574 111.631 158.62 111.811C158.668 111.994 158.754 112.166 158.871 112.314C158.989 112.463 159.136 112.586 159.303 112.675C159.468 112.78 159.654 112.845 159.848 112.867C160.042 112.888 160.238 112.865 160.422 112.799C161.32 112.274 162.004 111.45 162.354 110.472C162.176 110.509 161.995 110.532 161.813 110.538C161.274 110.546 160.743 110.405 160.279 110.13C159.815 109.856 159.436 109.459 159.184 108.983C158.891 108.511 158.734 107.968 158.729 107.414C158.724 106.859 158.871 106.313 159.155 105.836C159.46 105.408 159.864 105.06 160.334 104.822C160.803 104.584 161.323 104.464 161.849 104.47C162.579 104.474 163.289 104.711 163.875 105.147C163.977 105.045 164.1 104.967 164.237 104.921C164.373 104.875 164.518 104.86 164.661 104.879C164.785 104.894 164.906 104.933 165.015 104.994C165.124 105.055 165.22 105.138 165.297 105.236C165.375 105.334 165.432 105.447 165.466 105.568C165.499 105.688 165.509 105.814 165.494 105.938C165.289 107.354 165.21 108.785 165.259 110.215C165.289 110.807 165.281 111.401 165.274 111.995C165.251 112.697 165.265 113.399 165.317 114.099C165.34 114.351 165.262 114.601 165.1 114.796C164.938 114.99 164.705 115.112 164.453 115.135C164.423 115.138 164.394 115.139 164.365 115.139ZM112.925 107.304C112.453 107.639 112.067 108.081 111.798 108.594C111.529 109.106 111.386 109.675 111.379 110.253C111.343 110.651 111.418 111.05 111.598 111.407C111.711 111.579 111.866 111.721 112.047 111.818C112.229 111.916 112.433 111.967 112.639 111.966C113.032 111.993 113.426 111.925 113.787 111.768C114.148 111.611 114.466 111.37 114.714 111.065C115.195 110.397 115.494 109.616 115.583 108.799C115.598 108.346 115.619 107.894 115.645 107.442C114.802 107.048 113.839 106.994 112.957 107.293L112.925 107.304ZM161.809 106.376C161.609 106.363 161.408 106.401 161.226 106.485C161.044 106.569 160.886 106.698 160.766 106.859C160.673 107.043 160.631 107.249 160.644 107.455C160.656 107.661 160.723 107.86 160.838 108.031C160.924 108.2 161.052 108.343 161.209 108.449C161.366 108.555 161.547 108.619 161.736 108.635C162.345 108.611 162.822 108.086 163.147 107.377C163.11 107.22 163.049 107.07 162.967 106.932C162.838 106.752 162.667 106.607 162.468 106.51C162.269 106.413 162.049 106.367 161.828 106.376L161.809 106.376ZM152.403 106.54C152.234 106.555 152.069 106.597 151.914 106.665C151.707 106.774 151.532 106.936 151.408 107.134C151.284 107.332 151.214 107.559 151.207 107.793C151.188 107.912 151.2 108.033 151.243 108.145C151.309 108.253 151.395 108.346 151.497 108.42C151.6 108.493 151.716 108.546 151.838 108.575C152.137 108.66 152.455 108.646 152.745 108.534C152.89 107.885 152.826 107.206 152.562 106.596C152.541 106.575 152.516 106.559 152.489 106.549C152.461 106.54 152.432 106.537 152.403 106.54V106.54Z" fill="white"/>
<path d="M96.5508 146.898C96.3731 146.898 96.1989 146.849 96.0479 146.755C95.8968 146.662 95.7748 146.529 95.6955 146.37C94.9449 144.627 94.8718 142.668 95.4904 140.875L95.7018 140.107C96.2661 138.067 96.8255 136.044 97.3737 133.987C97.4968 133.522 97.6335 133.009 97.8038 132.481C97.9741 131.014 98.1212 129.549 98.2451 128.084C98.2669 127.833 98.3875 127.6 98.5807 127.438C98.7738 127.275 99.0237 127.196 99.2754 127.217C99.5272 127.238 99.7603 127.358 99.9237 127.55C100.087 127.742 100.167 127.991 100.147 128.243C100.136 128.383 100.123 128.522 100.111 128.662C100.522 128.336 101.003 128.107 101.516 127.994C102.029 127.88 102.561 127.885 103.072 128.008C103.462 128.101 103.823 128.29 104.122 128.557C104.421 128.825 104.648 129.162 104.784 129.539C105.175 130.781 105.108 132.121 104.594 133.317C104.346 133.944 104.22 134.612 104.222 135.286L103.588 136.189L104.301 135.555C104.538 135.822 104.678 135.792 104.748 135.78C105.028 135.657 105.279 135.477 105.485 135.252C105.691 135.026 105.848 134.76 105.945 134.471C106.508 132.727 107.429 131.12 108.648 129.751C109.01 129.212 109.495 128.767 110.063 128.452C110.545 128.204 111.076 128.068 111.618 128.052C112.16 128.036 112.699 128.141 113.194 128.361C113.712 128.583 114.161 128.939 114.493 129.393C114.568 129.042 114.655 128.693 114.761 128.349C114.826 128.145 114.958 127.968 115.135 127.847C115.312 127.726 115.525 127.668 115.739 127.681C115.954 127.696 116.157 127.782 116.316 127.927C116.475 128.072 116.581 128.266 116.615 128.478C116.743 129.605 116.527 130.744 115.995 131.746C115.86 132.521 115.64 133.278 115.34 134.004C115.321 134.334 115.383 134.663 115.519 134.963C115.655 135.264 115.862 135.527 116.122 135.731C116.319 135.863 116.55 135.938 116.787 135.948C117.024 135.958 117.26 135.903 117.468 135.788C118.397 135.224 119.077 134.33 119.372 133.286L119.527 132.916C119.571 132.806 119.617 132.694 119.666 132.579C119.71 131.837 119.914 131.113 120.264 130.456C120.613 129.799 121.101 129.226 121.692 128.774C122.026 128.518 122.421 128.352 122.838 128.292C123.254 128.232 123.68 128.28 124.073 128.431C124.654 128.71 125.122 129.182 125.395 129.765C125.495 129.953 125.528 130.17 125.49 130.38C125.452 130.589 125.344 130.78 125.185 130.922C125.025 131.063 124.822 131.147 124.609 131.16C124.396 131.173 124.185 131.114 124.009 130.993C123.492 130.637 123.24 130.714 123.16 130.739C122.545 130.921 121.962 132.078 121.557 133.011C121.552 133.535 121.701 134.05 121.985 134.492C122.257 134.865 122.62 135.164 123.039 135.359C123.458 135.555 123.919 135.641 124.381 135.61C124.732 135.611 125.077 135.519 125.381 135.344C125.685 135.17 125.938 134.918 126.114 134.615C126.451 133.837 126.619 132.997 126.605 132.151C126.592 131.304 126.398 130.469 126.037 129.703C125.755 129.143 125.434 128.604 125.076 128.089C124.369 127.14 123.845 126.069 123.531 124.929C123.363 124.275 123.394 123.585 123.62 122.949C123.844 122.437 124.194 121.991 124.638 121.651C125.082 121.312 125.605 121.09 126.158 121.007C126.957 120.885 127.768 120.881 128.568 120.996C129.763 121.115 130.965 121.165 132.166 121.144C132.667 121.161 133.167 121.093 133.646 120.943C133.795 120.896 133.933 120.816 134.048 120.71C134.163 120.604 134.253 120.474 134.312 120.329C134.376 120.085 134.534 119.876 134.752 119.749C134.97 119.621 135.23 119.585 135.475 119.649C135.719 119.712 135.929 119.87 136.057 120.087C136.185 120.304 136.222 120.563 136.159 120.807C136.028 121.246 135.795 121.648 135.479 121.98C135.163 122.312 134.773 122.565 134.34 122.718C133.652 122.955 132.927 123.067 132.2 123.049C130.989 123.058 129.792 123.023 128.62 122.915C127.927 122.803 127.221 122.791 126.524 122.878C126.29 122.906 126.065 122.989 125.87 123.121C125.674 123.253 125.513 123.429 125.4 123.636C125.316 123.924 125.314 124.23 125.395 124.52C125.667 125.43 126.1 126.285 126.673 127.043C127.079 127.632 127.443 128.249 127.763 128.889C128.266 129.935 128.526 131.081 128.525 132.242C128.523 133.402 128.259 134.548 127.753 135.592C127.419 136.165 126.942 136.643 126.369 136.979C125.797 137.315 125.147 137.499 124.483 137.513C123.693 137.562 122.903 137.409 122.189 137.067C121.476 136.726 120.861 136.207 120.406 135.561L120.386 135.53C119.9 136.388 119.166 137.079 118.28 137.513C117.772 137.768 117.206 137.883 116.64 137.848C116.073 137.812 115.526 137.627 115.054 137.311C114.645 137.034 114.3 136.674 114.041 136.254C113.592 136.863 112.96 137.315 112.237 137.544C111.773 137.658 111.29 137.668 110.822 137.572C110.354 137.476 109.913 137.278 109.531 136.991C108.711 136.441 108.136 135.596 107.925 134.633C107.863 134.792 107.801 134.956 107.74 135.123C107.537 135.725 107.191 136.269 106.733 136.709C106.274 137.15 105.716 137.473 105.106 137.652C104.693 137.727 104.269 137.689 103.876 137.543C103.483 137.397 103.137 137.149 102.874 136.823C102.694 136.622 102.553 136.389 102.458 136.136C102.379 135.906 102.331 135.665 102.317 135.422C102.292 134.507 102.447 133.596 102.774 132.74C103.147 131.942 103.223 131.038 102.989 130.189C102.958 130.102 102.904 130.024 102.833 129.965C102.762 129.905 102.676 129.866 102.585 129.851C102.364 129.804 102.136 129.806 101.917 129.856C101.697 129.906 101.491 130.004 101.313 130.142C100.525 130.897 99.9585 131.853 99.6759 132.906C99.1538 137.353 98.4192 141.788 97.4844 146.145C97.4386 146.359 97.321 146.55 97.1511 146.687C96.9812 146.824 96.7693 146.899 96.5508 146.899L96.5508 146.898ZM110.115 130.98C109.79 131.568 109.626 132.231 109.639 132.903C109.657 134.21 109.947 134.981 110.584 135.4C111.251 135.84 111.606 135.742 111.719 135.71C112.477 135.497 113.142 134.193 113.453 133.538C113.536 132.838 113.726 132.154 114.017 131.512C113.814 131.513 113.615 131.45 113.45 131.332C113.284 131.214 113.16 131.047 113.095 130.854C113.041 130.709 112.951 130.58 112.832 130.48C112.714 130.381 112.571 130.313 112.419 130.285C112.063 130.203 111.693 130.203 111.337 130.284C110.981 130.365 110.648 130.524 110.363 130.751C110.279 130.824 110.197 130.9 110.115 130.98V130.98Z" fill="white"/>
<path d="M133.196 137.56C132.862 137.56 132.531 137.514 132.21 137.424C131.676 137.263 131.181 136.995 130.755 136.636C130.33 136.276 129.983 135.833 129.736 135.334C129.57 135.001 129.457 134.644 129.402 134.276C129.339 133.546 129.434 132.811 129.68 132.121C129.926 131.431 130.319 130.802 130.83 130.276C131.254 129.747 131.806 129.333 132.433 129.073C133.061 128.814 133.744 128.717 134.419 128.792C135.09 128.902 135.698 129.252 136.128 129.778C136.559 130.303 136.783 130.968 136.757 131.646C136.87 132.475 136.883 133.314 136.794 134.146C136.683 135.138 136.216 136.056 135.48 136.732C134.842 137.272 134.032 137.565 133.196 137.56V137.56ZM133.867 130.648C133.556 130.682 133.254 130.777 132.98 130.928C132.706 131.079 132.464 131.283 132.27 131.528C131.945 131.849 131.69 132.234 131.521 132.658C131.353 133.083 131.274 133.537 131.29 133.993L131.291 133.997C131.316 134.167 131.368 134.331 131.445 134.484C131.572 134.747 131.751 134.98 131.972 135.17C132.192 135.36 132.45 135.503 132.728 135.59C132.985 135.663 133.256 135.674 133.517 135.622C133.779 135.57 134.025 135.456 134.234 135.29C134.618 134.913 134.856 134.413 134.905 133.878C134.968 133.196 134.952 132.51 134.858 131.832C134.759 130.841 134.58 130.758 134.076 130.667C134.007 130.654 133.937 130.648 133.867 130.648Z" fill="white"/>
<path d="M148.841 137.277C148.467 137.278 148.095 137.211 147.744 137.08C145.704 136.317 146.354 134.153 146.667 133.112L146.801 132.646C146.855 132.437 146.922 132.234 146.989 132.034C147.161 131.522 147.222 131.292 147.132 131.081C147.002 130.77 146.925 130.712 146.91 130.703C146.862 130.67 146.807 130.648 146.749 130.64C146.691 130.631 146.632 130.636 146.576 130.654C146.027 130.932 145.59 131.389 145.337 131.95C144.846 133.187 144.432 134.454 144.098 135.742C144.035 135.975 143.885 136.176 143.68 136.303C143.474 136.43 143.228 136.475 142.991 136.428C142.753 136.381 142.543 136.246 142.402 136.05C142.26 135.854 142.199 135.612 142.229 135.373C142.814 130.913 142.069 130.417 142.062 130.413C141.91 130.446 141.769 130.515 141.65 130.613C141.531 130.712 141.437 130.837 141.375 130.98C140.853 132.109 140.472 133.298 140.242 134.52C140.108 135.09 139.976 135.648 139.827 136.17C139.76 136.396 139.613 136.59 139.413 136.715C139.213 136.84 138.974 136.887 138.741 136.848C138.509 136.807 138.299 136.681 138.154 136.495C138.009 136.309 137.938 136.076 137.956 135.84C137.971 135.646 138.31 131.06 138.797 128.725C138.846 128.494 138.978 128.289 139.169 128.15C139.361 128.011 139.597 127.947 139.832 127.972C140.067 127.997 140.285 128.108 140.443 128.284C140.601 128.46 140.688 128.688 140.687 128.924C140.893 128.783 141.12 128.676 141.359 128.606C141.69 128.496 142.043 128.472 142.385 128.536C142.727 128.6 143.047 128.751 143.315 128.973C143.705 129.333 143.981 129.797 144.111 130.311C144.579 129.62 145.258 129.098 146.047 128.824C146.357 128.731 146.683 128.706 147.003 128.749C147.323 128.793 147.631 128.904 147.904 129.076C148.361 129.382 148.707 129.825 148.892 130.342C149.163 131.09 149.13 131.914 148.799 132.638C148.747 132.795 148.693 132.953 148.651 133.116C148.609 133.283 148.554 133.467 148.496 133.661C148.113 134.933 148.164 135.203 148.413 135.296C148.571 135.353 148.739 135.379 148.907 135.37C149.075 135.361 149.24 135.318 149.391 135.244C150.179 134.853 150.319 133.993 150.483 132.622C150.528 131.615 150.798 130.631 151.273 129.741C151.285 129.723 151.296 129.704 151.309 129.686C151.523 129.188 151.843 128.742 152.248 128.381C152.652 128.019 153.13 127.75 153.65 127.591C154.18 127.469 154.73 127.456 155.266 127.555C155.801 127.653 156.311 127.861 156.762 128.164C156.816 127.95 156.944 127.76 157.124 127.63C157.303 127.5 157.523 127.438 157.744 127.454C157.997 127.469 158.233 127.584 158.401 127.774C158.569 127.963 158.655 128.211 158.639 128.463C158.617 128.818 158.592 129.188 158.557 129.568C158.582 129.602 158.606 129.637 158.629 129.673C158.757 129.867 158.809 130.1 158.776 130.33C158.744 130.56 158.628 130.769 158.452 130.92C158.432 130.937 158.411 130.953 158.388 130.97C158.335 131.308 158.269 131.651 158.189 131.992C158.114 132.643 158.138 133.301 158.259 133.945L158.316 134.232C158.346 134.506 158.425 134.773 158.549 135.019C158.807 135.106 159.083 135.133 159.353 135.097C159.624 135.061 159.883 134.963 160.11 134.812C160.641 134.465 161.038 133.947 161.234 133.344C161.317 133.105 161.491 132.909 161.719 132.799C161.947 132.689 162.21 132.673 162.449 132.756C162.689 132.839 162.885 133.013 162.996 133.241C163.106 133.469 163.122 133.731 163.039 133.969C162.699 134.992 162.014 135.865 161.102 136.44C160.582 136.771 159.985 136.966 159.369 137.004C158.753 137.043 158.137 136.925 157.579 136.66C157.123 136.377 156.788 135.935 156.64 135.42C156.264 135.896 155.775 136.271 155.217 136.513C154.766 136.687 154.281 136.758 153.799 136.719C153.317 136.681 152.85 136.534 152.433 136.289C152.129 136.131 151.86 135.913 151.643 135.648C151.317 136.212 150.828 136.666 150.241 136.951C149.806 137.166 149.327 137.278 148.841 137.277ZM152.983 130.621C152.933 130.744 152.892 130.87 152.86 130.998C152.522 132.345 152.65 134.254 153.315 134.6C153.485 134.717 153.68 134.791 153.885 134.818C154.089 134.844 154.297 134.82 154.491 134.75C155.338 134.18 155.925 133.3 156.125 132.301C156.19 132.095 156.249 131.886 156.301 131.675C156.348 131.211 156.417 130.754 156.486 130.301C156.305 130.155 156.115 130.018 155.919 129.891C155.612 129.772 155.282 129.721 154.952 129.741C154.579 129.729 154.207 129.802 153.866 129.955C153.525 130.107 153.223 130.335 152.983 130.621L152.983 130.621Z" fill="white"/>
<path d="M17.832 183.379L20.2259 153.363L227.755 150.302L230.149 153.363V186.44H20.2259L17.832 183.379ZM213.509 171.147C214.528 171.147 215.524 170.845 216.371 170.28C217.218 169.715 217.878 168.912 218.268 167.973C218.658 167.034 218.76 166 218.561 165.003C218.362 164.006 217.872 163.09 217.152 162.371C216.431 161.652 215.513 161.162 214.514 160.964C213.515 160.766 212.48 160.868 211.538 161.257C210.597 161.646 209.793 162.305 209.227 163.15C208.661 163.995 208.359 164.989 208.359 166.006C208.359 166.681 208.492 167.349 208.751 167.973C209.01 168.597 209.389 169.164 209.867 169.641C210.346 170.118 210.913 170.497 211.538 170.755C212.163 171.014 212.833 171.147 213.509 171.147V171.147Z" fill="#2435A1"/>
<path d="M17.832 150.302H227.755V183.379H17.832V150.302ZM211.506 173.146C212.525 173.146 213.521 172.844 214.368 172.28C215.215 171.715 215.875 170.912 216.265 169.973C216.655 169.033 216.757 168 216.558 167.002C216.359 166.005 215.868 165.089 215.148 164.37C214.428 163.651 213.51 163.162 212.511 162.964C211.512 162.765 210.476 162.867 209.535 163.256C208.594 163.645 207.789 164.304 207.223 165.149C206.658 165.995 206.355 166.989 206.355 168.005C206.355 168.68 206.489 169.349 206.748 169.973C207.006 170.596 207.386 171.163 207.864 171.64C208.342 172.118 208.91 172.496 209.535 172.755C210.16 173.013 210.83 173.146 211.506 173.146V173.146Z" fill="#49B3F7"/>
<path d="M216.514 169.165C216.254 170.296 215.617 171.306 214.707 172.029C213.797 172.752 212.669 173.146 211.506 173.146C210.343 173.146 209.215 172.752 208.305 172.029C207.395 171.306 206.759 170.296 206.499 169.165H17.832V183.379H227.755V169.165H216.514Z" fill="#378FDD"/>
<path d="M191.082 150.302H187.613V166.84H191.082V150.302Z" fill="white"/>
<path d="M161.043 150.302H157.574V166.84H161.043V150.302Z" fill="white"/>
<path d="M131.004 150.302H127.535V166.84H131.004V150.302Z" fill="white"/>
<path d="M100.964 150.302H97.4961V166.84H100.964V150.302Z" fill="white"/>
<path d="M70.9254 150.302H67.457V166.84H70.9254V150.302Z" fill="white"/>
<path d="M40.8864 150.302H37.418V166.84H40.8864V150.302Z" fill="white"/>
<path d="M176.156 150.302H172.688V161.372H176.156V150.302Z" fill="white"/>
<path d="M146.117 150.302H142.648V161.372H146.117V150.302Z" fill="white"/>
<path d="M116.078 150.302H112.609V161.372H116.078V150.302Z" fill="white"/>
<path d="M86.0387 150.302H82.5703V161.372H86.0387V150.302Z" fill="white"/>
<path d="M55.9996 150.302H52.5312V161.372H55.9996V150.302Z" fill="white"/>
<path d="M199.391 36.2842H172.688V168.784H199.391V36.2842Z" fill="#E94B36"/>
<path d="M192.038 36.2842H180.4V168.784H192.038V36.2842Z" fill="#FF6551"/>
<path d="M199.392 36.2842H192.039V168.784H199.392V36.2842Z" fill="#E94B36"/>
<path d="M199.391 168.784H172.688L184.082 197.268C184.273 197.743 184.603 198.15 185.029 198.435C185.455 198.719 185.958 198.868 186.471 198.862C186.984 198.856 187.483 198.694 187.902 198.399C188.321 198.105 188.641 197.69 188.82 197.21L199.391 168.784Z" fill="#FFBF94"/>
<path d="M192.959 186.081H179.607L184.083 197.268C184.273 197.743 184.603 198.15 185.029 198.435C185.456 198.719 185.959 198.868 186.471 198.862C186.984 198.856 187.483 198.695 187.903 198.4C188.322 198.105 188.642 197.69 188.82 197.21L192.959 186.081Z" fill="#5B5B5C"/>
<path d="M199.391 36.2842H172.688V42.516H199.391V36.2842Z" fill="#2435A1"/>
<path d="M178.525 25H193.553C195.102 25 196.586 25.6138 197.681 26.7065C198.776 27.7991 199.391 29.2811 199.391 30.8263V36.2841H172.688V30.8263C172.688 29.2811 173.303 27.7991 174.397 26.7065C175.492 25.6138 176.977 25 178.525 25V25Z" fill="#F7A845"/>
</svg>
