<svg width="248" height="217" viewBox="0 0 248 217" fill="none" xmlns="http://www.w3.org/2000/svg">
<path d="M205.648 197.705C193.488 204.865 177.766 201.81 163.496 203.373C151.437 204.694 140.164 209.427 128.621 212.95C117.078 216.472 104.429 218.785 92.9054 215.208C84.9892 212.751 78.3128 207.727 70.863 204.218C61.8733 199.984 51.8831 198.009 42.5018 194.599C33.1204 191.188 23.8584 185.844 19.5029 177.354C14.2655 167.144 17.2756 155.015 15.296 143.842C13.0617 131.232 4.56551 120.344 1.00939 108.003C-1.50305 99.2844 1.10376 88.9957 4.13984 80.5354C7.34799 71.5956 16.2661 61.5518 24.8597 56.3498C27.6634 54.6527 30.4323 52.9525 33.0803 51.0326C34.2405 50.1914 40.3458 46.5115 40.3458 45.1793C47.2007 38.9963 51.3152 31.1116 57.2719 24.2644C63.4524 17.1599 72.4989 12.5568 81.9868 10.2993C90.578 8.22717 99.3672 7.08147 108.203 6.88183C117.693 6.73437 126.897 7.5614 136.054 4.50722C137.976 3.866 139.841 3.08125 141.758 2.42396C154.704 -2.01317 172.04 -0.0698025 184.142 5.90422C188.76 8.18378 192.624 11.578 196.348 15.0027C200.968 19.0604 205.006 23.7344 208.347 28.8928C211.405 33.8688 212.374 39.808 216.27 44.4786C218.886 47.6151 221.461 51.0606 224.054 54.0858C228.062 58.7605 234.233 61.007 238.044 66.101C241.88 71.2285 243.704 77.4893 244.967 83.5572C246.584 91.326 247.49 99.2904 246.624 107.164C245.237 119.761 238.162 129.126 230.929 139.377C228.519 142.792 226.098 146.327 225.173 150.326C224.802 152.244 224.575 154.187 224.493 156.138C224.047 161.824 222.518 167.062 221.366 172.572C219.343 182.249 214.917 192.248 205.648 197.705Z" fill="#EFF2FD"/>
<path d="M47.001 70.9429L46.8873 66.8025C46.871 66.2136 47.2192 65.7324 47.6546 65.7418L75.0707 66.3398C75.4843 66.3488 75.824 66.7989 75.8394 67.3584L76.0008 73.2346L47.001 70.9429Z" fill="#545554"/>
<path d="M78.2524 71.8248L78.0561 67.5784C78.0316 67.0494 78.3365 66.6111 78.7279 66.6123L106.306 66.6986C106.678 66.6998 106.991 67.0986 107.014 67.6011L107.29 73.5747L78.2524 71.8248Z" fill="#545554"/>
<path d="M107.958 176.792L108.398 181.02C108.453 181.547 108.174 182.002 107.783 182.023L80.2459 183.52C79.8746 183.54 79.5392 183.16 79.4871 182.659L78.8672 176.711L107.958 176.792Z" fill="#545554"/>
<path d="M27.9199 181.808L29.7397 181.747L35.8999 181.54L56.1943 180.864L111.245 179.016L154.018 177.587L159.894 177.392H159.898L216.251 175.502V71.8845L215.152 71.8686L166.839 71.3027L67.9089 70.133L62.7712 70.0721L27.9199 69.6592V181.808Z" fill="#5B5B5C"/>
<path d="M208.45 170L35.7266 175.609V75.8564L208.45 77.8349V170Z" fill="#49B3F7"/>
<path d="M38.6719 143.204V113.16C38.6719 111.915 37.6612 110.906 36.4145 110.906H34.9096C33.6629 110.906 32.6522 111.915 32.6522 113.16V143.204C32.6522 144.449 33.6629 145.458 34.9096 145.458H36.4145C37.6612 145.458 38.6719 144.449 38.6719 143.204Z" fill="#5B5B5C"/>
<g style="mix-blend-mode:multiply" opacity="0.15">
<path d="M114.516 178.907L216.252 175.502V101.958C203.767 125.733 179.197 155.49 114.516 178.907Z" fill="#00879F"/>
</g>
<g style="mix-blend-mode:screen" opacity="0.28">
<path d="M27.9199 181.808L29.7395 181.747C80.9301 142.788 131.123 101.959 166.839 71.303L27.9199 69.6587V181.808Z" fill="#BFE6F6"/>
</g>
<path d="M244.705 157.482C185.584 158.402 126.463 159.253 67.3403 160.037C66.4138 160.009 65.5361 159.617 64.8987 158.945C64.2613 158.273 63.9161 157.377 63.9384 156.452C63.3482 116.104 63.2985 75.7571 63.7894 35.4124C63.7647 34.4877 64.1078 33.5907 64.7436 32.9177C65.3794 32.2446 66.2562 31.8501 67.1825 31.8203C126.306 32.4759 185.429 33.191 244.552 33.9655C245.459 33.998 246.316 34.3885 246.935 35.0513C247.554 35.7141 247.884 36.595 247.853 37.5007C247.381 76.3165 247.429 115.129 247.998 153.939C248.031 154.844 247.703 155.726 247.086 156.39C246.468 157.055 245.612 157.447 244.705 157.482V157.482Z" fill="#243976"/>
<path d="M157.242 161.607C155.511 161.633 154.646 161.646 152.915 161.672C150.855 161.632 148.896 160.778 147.466 159.298C146.036 157.818 145.252 155.832 145.287 153.776V153.776C145.275 153.51 145.315 153.245 145.405 152.995C145.496 152.745 145.634 152.515 145.814 152.318C145.993 152.121 146.209 151.962 146.45 151.849C146.691 151.736 146.952 151.671 147.218 151.659C153.384 151.58 156.467 151.54 162.632 151.46C163.169 151.471 163.68 151.693 164.053 152.079C164.426 152.465 164.631 152.982 164.622 153.519V153.519C164.716 155.568 163.991 157.57 162.608 159.086C161.224 160.603 159.294 161.509 157.242 161.607V161.607Z" fill="#243976"/>
<path d="M242.357 154.317C183.236 155.191 124.114 156 64.9908 156.745C64.0642 156.716 63.1866 156.323 62.5497 155.651C61.9128 154.978 61.5684 154.081 61.5917 153.156C61.0314 112.79 61.0118 72.426 61.533 32.0644C61.5088 31.1393 61.8524 30.2423 62.4887 29.5694C63.1249 28.8964 64.0021 28.5021 64.9287 28.4727C124.052 29.1637 183.175 29.9175 242.297 30.7342C243.204 30.7677 244.061 31.1592 244.68 31.8228C245.298 32.4864 245.628 33.3678 245.596 34.2736C245.094 73.1099 245.113 111.943 245.653 150.774C245.685 151.68 245.357 152.562 244.739 153.226C244.121 153.89 243.264 154.283 242.357 154.317Z" fill="#864FF1"/>
<path d="M154.89 158.378C154.079 158.389 153.673 158.395 152.862 158.407C150.802 158.366 148.843 157.511 147.414 156.029C145.986 154.548 145.204 152.562 145.24 150.506V150.506C145.216 149.969 145.405 149.445 145.768 149.048C146.13 148.652 146.635 148.415 147.173 148.39C152.419 148.327 155.042 148.295 160.288 148.23C160.825 148.241 161.336 148.465 161.709 148.851C162.082 149.237 162.286 149.755 162.277 150.291V150.291C162.369 152.34 161.643 154.343 160.259 155.859C158.874 157.375 156.943 158.281 154.89 158.378Z" fill="#864FF1"/>
<path d="M242.357 154.317C212.512 154.758 182.666 155.184 152.82 155.594C152.203 113.574 152.183 71.5564 152.759 29.5415C182.605 29.9242 212.451 30.3217 242.297 30.7339C243.204 30.7675 244.061 31.159 244.679 31.8226C245.298 32.4862 245.627 33.3676 245.595 34.2734C245.093 73.1097 245.112 111.943 245.652 150.774C245.685 151.68 245.357 152.562 244.739 153.226C244.121 153.89 243.264 154.282 242.357 154.317V154.317Z" fill="#864FF1"/>
<path d="M241.275 148.519C183.466 149.295 125.656 150.016 67.8453 150.68C66.6963 109.954 66.0988 69.2224 66.0527 28.4856C67.5017 25.3654 68.2276 23.8062 69.6819 20.6899C97.8171 29.4061 125.989 38.0018 154.196 46.4768C182.524 38.5419 210.893 30.7592 239.304 23.1286C240.498 26.1731 241.096 27.6942 242.296 30.7341C241.417 69.9939 241.076 109.256 241.275 148.519Z" fill="#ECB891"/>
<path d="M69.6834 20.6899C69.0242 63.26 68.9676 105.828 69.5136 148.393C97.7921 148.08 126.07 147.755 154.348 147.418C153.852 108.497 153.865 69.5785 154.386 30.6627C154.49 28.4029 153.692 26.1943 152.166 24.5213C150.641 22.8484 148.513 21.8478 146.249 21.739C120.727 21.3775 95.2054 21.0278 69.6834 20.6899Z" fill="#FFF2EA"/>
<path d="M145.986 139.593C120.463 139.853 94.9399 140.105 69.4168 140.349C69.4168 140.349 68.2851 147.085 67.8477 150.68C95.4583 150.374 126.623 150.074 154.307 149.645V147.418C154.14 145.316 153.196 143.351 151.658 141.904C150.12 140.458 148.098 139.634 145.986 139.593V139.593Z" fill="#FFD7BD"/>
<path d="M239.306 23.1286C238.665 64.2078 238.61 105.285 239.14 146.36C210.862 146.724 182.585 147.077 154.306 147.418C153.81 108.497 153.823 69.5783 154.344 30.6621C154.306 28.3993 155.169 26.2138 156.743 24.5852C158.317 22.9567 160.475 22.0183 162.741 21.9761C188.263 22.3484 213.784 22.7326 239.306 23.1286Z" fill="#FFE0CC"/>
<path d="M154.345 30.6619C153.823 69.5831 153.81 108.502 154.307 147.418C155.792 144.797 156.536 143.487 158.025 140.87C157.577 101.681 157.652 62.4964 158.251 23.3149C158.251 23.3149 154.788 24.5662 154.345 30.6619Z" fill="#FFCFB3"/>
<path d="M162.476 139.423C187.999 139.155 213.522 138.88 239.044 138.597L241.275 148.519C213.012 148.884 182.612 147.077 154.348 147.418C154.461 145.313 155.357 143.327 156.861 141.848C158.364 140.37 160.367 139.505 162.476 139.423V139.423Z" fill="#ECB891"/>
<path d="M239.475 140.433C222.256 141.155 204.639 141.878 187.42 142.604C204.65 142.767 222.852 142.923 240.082 143.072L239.475 140.433Z" fill="#DA9E7B"/>
<path d="M240.513 145.124C227.773 145.657 214.205 146.193 201.465 146.729C214.213 146.85 228.203 146.966 240.951 147.076L240.513 145.124Z" fill="#DA9E7B"/>
<path d="M69.1925 141.704C89.5901 141.954 110.246 142.193 130.644 142.421C110.257 143.093 89.1641 143.613 68.7773 144.285L69.1925 141.704Z" fill="#ECB891"/>
<path d="M68.4425 146.443C82.9913 146.621 98.5483 146.791 113.097 146.954C98.5564 147.434 82.6954 147.914 68.1543 148.393L68.4425 146.443Z" fill="#ECB891"/>
<path d="M86.6575 132.167C86.3475 98.3473 86.4199 64.0368 86.8707 30.189L88.4023 30.2085C87.9515 64.0456 87.8801 98.3444 88.1891 132.153L86.6575 132.167Z" fill="#49B3F7"/>
<path d="M127.403 131.829C127.094 98.2537 127.166 64.2195 127.615 30.6733L129.146 30.6929C128.698 64.2283 128.627 98.2508 128.934 131.816L127.403 131.829Z" fill="#49B3F7"/>
<path d="M147.334 43.7949C123.536 43.5625 99.7388 43.3366 75.9414 43.1172L75.9551 41.5879C99.7535 41.8066 123.552 42.0326 147.349 42.2656L147.334 43.7949Z" fill="#49B3F7"/>
<path d="M147.172 62.5405C123.373 62.3999 99.5751 62.2635 75.7773 62.1313L75.7852 60.6021C99.5835 60.7339 123.382 60.8703 147.181 61.0112L147.172 62.5405Z" fill="#49B3F7"/>
<path d="M75.7022 79.6157L75.6992 81.145L147.095 81.2846L147.098 79.7553L75.7022 79.6157Z" fill="#49B3F7"/>
<path d="M147.092 98.5193L75.6953 98.6104L75.6973 100.14L147.094 100.049L147.092 98.5193Z" fill="#49B3F7"/>
<path d="M75.7793 119.172L75.7715 117.643C99.5699 117.514 123.368 117.381 147.166 117.244L147.175 118.773C123.376 118.91 99.5774 119.043 75.7793 119.172Z" fill="#49B3F7"/>
<path d="M135.67 61.0142C134.352 61.0042 133.068 60.5916 131.991 59.8319C131.867 59.7456 131.762 59.6359 131.681 59.5089C131.599 59.382 131.544 59.2403 131.518 59.092C131.464 58.7924 131.533 58.4841 131.707 58.2347C131.882 57.9854 132.148 57.8155 132.448 57.7624C132.749 57.7093 133.057 57.7773 133.307 57.9516C133.779 58.2973 134.321 58.5336 134.896 58.643C135.47 58.7525 136.062 58.7324 136.628 58.5842C137.177 58.4099 137.673 58.0966 138.065 57.6748C138.458 57.2529 138.735 56.7368 138.868 56.1767C138.937 55.8539 138.912 55.5182 138.796 55.2091C138.68 54.9 138.479 54.6301 138.215 54.4311C137.618 53.8949 136.914 53.4907 136.149 53.2449C135.385 52.9991 134.577 52.9173 133.779 53.0048C133.592 53.052 133.396 53.0516 133.21 53.0035C133.023 52.9555 132.852 52.8613 132.711 52.7297C132.57 52.5982 132.465 52.4334 132.405 52.2506C132.345 52.0679 132.332 51.873 132.367 51.6838C132.691 50.2238 132.844 48.7312 132.823 47.2359C132.816 47.0766 132.842 46.9175 132.899 46.7688C132.957 46.62 133.045 46.4849 133.158 46.3719C133.269 46.2572 133.404 46.1679 133.553 46.11C133.702 46.052 133.862 46.0268 134.022 46.036L139.771 46.2899C140.076 46.3033 140.362 46.437 140.568 46.6615C140.774 46.8859 140.882 47.1828 140.868 47.4868C140.855 47.7908 140.721 48.077 140.496 48.2824C140.271 48.4878 139.974 48.5957 139.669 48.5822L135.12 48.3811C135.082 49.1443 135.001 49.9047 134.878 50.6588C136.714 50.8037 138.45 51.551 139.816 52.7842C140.356 53.2606 140.76 53.8709 140.988 54.5533C141.216 55.2358 141.26 55.9662 141.114 56.6708C140.84 57.9066 140.151 59.0115 139.16 59.8017C138.17 60.592 136.938 61.0199 135.67 61.0143L135.67 61.0142Z" fill="#FF6551"/>
<path d="M149.589 54.002H149.581L143.315 53.9531C143.012 53.9506 142.721 53.828 142.507 53.6121C142.294 53.3963 142.175 53.1047 142.176 52.8013C142.177 52.4979 142.298 52.2072 142.514 51.993C142.729 51.7788 143.02 51.6584 143.324 51.6582H143.333L149.598 51.707C149.902 51.7096 150.193 51.8322 150.406 52.048C150.62 52.2639 150.739 52.5554 150.738 52.8589C150.737 53.1623 150.615 53.4529 150.4 53.6671C150.185 53.8814 149.893 54.0018 149.589 54.002V54.002Z" fill="#FF6551"/>
<path d="M146.315 57.4371H146.306C146.156 57.436 146.006 57.4052 145.867 57.3464C145.728 57.2877 145.602 57.2023 145.496 57.0949C145.39 56.9876 145.307 56.8605 145.25 56.7209C145.193 56.5812 145.165 56.4318 145.166 56.2812L145.224 49.5009C145.224 49.3498 145.254 49.2001 145.312 49.0607C145.37 48.9213 145.456 48.795 145.564 48.6892C145.672 48.5833 145.8 48.5001 145.941 48.4443C146.082 48.3886 146.232 48.3614 146.384 48.3645C146.535 48.3659 146.684 48.397 146.823 48.4559C146.962 48.5149 147.087 48.6005 147.193 48.7081C147.299 48.8156 147.382 48.9428 147.439 49.0825C147.495 49.2223 147.524 49.3717 147.522 49.5224L147.464 56.2988C147.462 56.6015 147.34 56.891 147.125 57.1042C146.91 57.3175 146.619 57.4371 146.315 57.4371V57.4371Z" fill="#FF6551"/>
<path d="M137.71 98.6323C136.407 98.6222 135.136 98.2196 134.066 97.4774C133.816 97.3046 133.644 97.0398 133.589 96.741C133.534 96.4423 133.6 96.1339 133.773 95.8837C133.945 95.6334 134.21 95.4617 134.509 95.4061C134.808 95.3506 135.118 95.4157 135.369 95.5873C135.843 95.9294 136.387 96.1614 136.962 96.2663C137.538 96.3712 138.129 96.3463 138.694 96.1936C139.242 96.0156 139.734 95.6989 140.123 95.2744C140.512 94.8499 140.784 94.3321 140.913 93.7714C140.978 93.4481 140.95 93.113 140.831 92.8052C140.713 92.4973 140.509 92.2294 140.244 92.0326C139.643 91.5002 138.935 91.101 138.168 90.8612C137.401 90.6214 136.592 90.5465 135.794 90.6414C135.608 90.69 135.412 90.6911 135.225 90.6445C135.039 90.5979 134.866 90.5051 134.725 90.3747C134.583 90.2444 134.477 90.0805 134.415 89.8984C134.354 89.7162 134.339 89.5215 134.373 89.3322C134.684 87.8701 134.825 86.3768 134.791 84.8823C134.782 84.723 134.806 84.5636 134.862 84.4143C134.919 84.265 135.006 84.129 135.117 84.0152C135.229 83.9013 135.364 83.812 135.512 83.753C135.661 83.6941 135.82 83.6667 135.98 83.6727L141.732 83.8826C141.883 83.888 142.031 83.9231 142.168 83.9857C142.305 84.0484 142.429 84.1374 142.532 84.2478C142.634 84.3581 142.714 84.4876 142.767 84.6288C142.819 84.77 142.843 84.9202 142.838 85.0708C142.822 85.3731 142.689 85.6574 142.467 85.8635C142.245 86.0696 141.951 86.1813 141.648 86.1749L137.097 86.009C137.066 86.7718 136.992 87.5322 136.875 88.2867C138.712 88.4169 140.455 89.1501 141.831 90.372C142.376 90.8436 142.785 91.4504 143.019 92.1308C143.253 92.8112 143.302 93.5412 143.163 94.2469C142.898 95.4924 142.211 96.6087 141.218 97.4075C140.224 98.2064 138.986 98.639 137.71 98.6324L137.71 98.6323Z" fill="#FF6551"/>
<path d="M121.803 56.8276H121.792L94.209 56.6362C93.8035 56.6333 93.4158 56.47 93.1306 56.1822C92.8454 55.8944 92.6861 55.5055 92.6875 55.1006C92.6889 54.6957 92.851 54.3079 93.1382 54.0221C93.4254 53.7363 93.8143 53.5758 94.2198 53.5757H94.2305L121.814 53.7671C122.22 53.7696 122.608 53.9327 122.893 54.2205C123.179 54.5084 123.338 54.8976 123.337 55.3027C123.336 55.7079 123.173 56.0959 122.886 56.3818C122.598 56.6676 122.209 56.828 121.803 56.8276H121.803Z" fill="#F4C6B1"/>
<path d="M94.078 94.4312C93.6722 94.4303 93.2834 94.2687 92.9967 93.9819C92.71 93.6952 92.549 93.3066 92.5488 92.9014C92.5487 92.4962 92.7095 92.1075 92.996 91.8205C93.2825 91.5336 93.6712 91.3718 94.077 91.3706L121.661 91.356H121.662C122.068 91.3569 122.457 91.5184 122.744 91.8052C123.03 92.092 123.191 92.4806 123.192 92.8857C123.192 93.2909 123.031 93.6796 122.744 93.9666C122.458 94.2535 122.069 94.4153 121.663 94.4165L94.079 94.4312H94.078Z" fill="#F4C6B1"/>
<path d="M171.57 131.448C171.263 98.1661 171.334 64.4452 171.781 31.2202L173.312 31.2417C172.866 64.4539 172.796 98.1641 173.102 131.434L171.57 131.448Z" fill="#47A7E5"/>
<path d="M212.317 131.082C212.015 98.1252 212.085 64.705 212.525 31.7485L214.057 31.7681C213.618 64.7138 213.547 98.1222 213.848 131.068L212.317 131.082Z" fill="#47A7E5"/>
<path d="M232.244 44.668C208.446 44.415 184.649 44.1689 160.852 43.9297L160.867 42.4004C184.665 42.6387 208.462 42.8848 232.259 43.1387L232.244 44.668Z" fill="#47A7E5"/>
<path d="M232.088 63.0684C208.289 62.915 184.491 62.7663 160.693 62.6221L160.703 61.0928C184.501 61.2373 208.299 61.3861 232.097 61.5391L232.088 63.0684Z" fill="#47A7E5"/>
<path d="M160.617 79.7842L160.613 81.3135L232.008 81.4668L232.012 79.9374L160.617 79.7842Z" fill="#47A7E5"/>
<path d="M232.006 98.315L160.611 98.4971L160.615 100.026L232.01 99.8443L232.006 98.315Z" fill="#47A7E5"/>
<path d="M160.695 118.696L160.686 117.167C184.484 117.026 208.282 116.882 232.081 116.735L232.091 118.264C208.292 118.412 184.494 118.555 160.695 118.696Z" fill="#47A7E5"/>
<path d="M224.998 80.2278H224.965C224.814 80.2235 224.666 80.1897 224.528 80.1281C224.39 80.0666 224.266 79.9785 224.162 79.869C224.058 79.7595 223.977 79.6307 223.923 79.4899C223.869 79.3491 223.844 79.199 223.848 79.0484C223.907 76.9435 223.967 74.7938 224.083 72.6225C223.084 72.5571 222.072 72.5922 221.016 72.6283C220.268 72.6518 219.516 72.6733 218.757 72.6683C218.575 72.6661 218.397 72.6212 218.237 72.5372C218.077 72.4533 217.938 72.3327 217.833 72.1853C217.729 72.0379 217.66 71.8678 217.633 71.6889C217.607 71.5101 217.623 71.3275 217.681 71.1561C218.361 69.1218 218.628 66.9723 218.466 64.8336C218.443 64.5303 218.541 64.2303 218.74 63.9994C218.938 63.7685 219.221 63.6258 219.524 63.6025C219.828 63.5792 220.129 63.6773 220.36 63.8752C220.592 64.0731 220.735 64.3546 220.759 64.6579C220.903 66.569 220.748 68.4909 220.3 70.3545C220.514 70.3487 220.726 70.3419 220.939 70.335C221.977 70.2999 223.04 70.2657 224.121 70.3262L224.399 68.3356C224.44 68.0384 224.597 67.7693 224.835 67.5859C225.072 67.4025 225.373 67.3194 225.671 67.3544C225.97 67.3894 226.243 67.5397 226.432 67.7731C226.62 68.0065 226.71 68.3044 226.682 68.6031C226.341 72.1372 226.242 75.6831 226.147 79.1128C226.138 79.4112 226.013 79.6945 225.799 79.9027C225.585 80.1108 225.297 80.2274 224.998 80.2278V80.2278Z" fill="#ED614E"/>
<path d="M222.674 116.962C221.386 116.953 220.128 116.565 219.06 115.846C218.806 115.677 218.63 115.414 218.571 115.116C218.511 114.817 218.573 114.507 218.743 114.254C218.912 114.001 219.175 113.826 219.474 113.767C219.773 113.707 220.083 113.769 220.337 113.938C220.817 114.274 221.365 114.5 221.943 114.601C222.52 114.702 223.113 114.674 223.679 114.521C224.22 114.349 224.708 114.04 225.094 113.624C225.481 113.208 225.753 112.699 225.883 112.147C225.944 111.841 225.916 111.524 225.804 111.233C225.691 110.942 225.498 110.689 225.247 110.504C224.634 109.975 223.916 109.58 223.141 109.343C222.367 109.105 221.551 109.031 220.746 109.125C220.559 109.173 220.364 109.174 220.177 109.128C219.991 109.081 219.819 108.988 219.677 108.858C219.536 108.728 219.429 108.564 219.367 108.382C219.306 108.201 219.291 108.006 219.324 107.817C219.629 106.384 219.763 104.92 219.723 103.456C219.713 103.296 219.737 103.137 219.792 102.987C219.848 102.838 219.934 102.701 220.045 102.587C220.275 102.362 220.585 102.237 220.907 102.239L226.658 102.422C226.809 102.427 226.957 102.461 227.095 102.523C227.232 102.585 227.356 102.674 227.46 102.783C227.563 102.893 227.644 103.022 227.697 103.163C227.751 103.304 227.776 103.454 227.771 103.605C227.766 103.756 227.732 103.904 227.669 104.041C227.607 104.179 227.519 104.303 227.409 104.406C227.299 104.509 227.169 104.589 227.028 104.643C226.887 104.696 226.736 104.721 226.585 104.716L222.033 104.572C222.004 105.308 221.934 106.043 221.823 106.772C223.676 106.897 225.436 107.625 226.834 108.844C227.364 109.304 227.764 109.895 227.992 110.558C228.22 111.222 228.268 111.933 228.133 112.621C227.918 113.574 227.456 114.454 226.793 115.172C226.131 115.89 225.29 116.422 224.356 116.714C223.811 116.88 223.244 116.963 222.674 116.962V116.962Z" fill="#ED614E"/>
<path d="M206.609 75.9819H206.603L179.019 75.8853C178.613 75.8838 178.225 75.7216 177.938 75.4342C177.652 75.1469 177.492 74.7579 177.492 74.3525C177.493 73.9472 177.655 73.5587 177.942 73.2723C178.229 72.9858 178.618 72.8249 179.024 72.8247H179.029L206.614 72.9214C207.02 72.9228 207.409 73.0851 207.696 73.3726C207.982 73.66 208.142 74.0492 208.141 74.4546C208.141 74.86 207.979 75.2485 207.691 75.5349C207.404 75.8212 207.015 75.982 206.609 75.9819H206.609Z" fill="#E2B9A7"/>
<path d="M179.046 113.025C178.64 113.025 178.25 112.865 177.962 112.578C177.675 112.292 177.513 111.904 177.512 111.498C177.511 111.093 177.671 110.703 177.958 110.416C178.244 110.128 178.633 109.966 179.039 109.964L206.623 109.836H206.63C207.036 109.836 207.426 109.997 207.714 110.283C208.001 110.569 208.163 110.958 208.164 111.363C208.165 111.769 208.005 112.158 207.719 112.446C207.432 112.733 207.043 112.896 206.637 112.897L179.053 113.025H179.046Z" fill="#E2B9A7"/>
</svg>
