<svg width="251" height="227" viewBox="0 0 251 227" fill="none" xmlns="http://www.w3.org/2000/svg">
<path d="M209.237 207.675C196.943 214.846 181.05 211.786 166.624 213.352C154.433 214.675 143.036 219.416 131.367 222.944C119.698 226.471 106.911 228.788 95.2612 225.205C87.2584 222.744 80.5089 217.713 72.9778 214.198C63.8897 209.957 53.7903 207.98 44.3064 204.564C34.8224 201.148 25.4591 195.796 21.056 187.292C15.7614 177.066 18.8044 164.918 16.8031 153.727C14.5444 141.098 5.95528 130.193 2.36027 117.833C-0.179641 109.1 2.45568 98.795 5.52499 90.3214C8.76823 81.3676 17.7839 71.308 26.4714 66.0979C29.3058 64.3981 32.105 62.6953 34.7819 60.7723C35.9548 59.9298 42.1269 56.2441 42.1269 54.9099C49.0567 48.7172 53.2162 40.8201 59.238 33.9621C65.4861 26.8464 74.6316 22.2362 84.2232 19.9751C92.9084 17.8998 101.794 16.7522 110.727 16.5523C120.32 16.4046 129.625 17.2329 138.881 14.174C140.825 13.5317 142.71 12.7458 144.648 12.0874C157.735 7.64334 175.261 9.58975 187.496 15.5732C192.164 17.8563 196.07 21.2559 199.835 24.6859C204.505 28.7499 208.587 33.4313 211.965 38.5978C215.057 43.5816 216.036 49.5302 219.975 54.2081C222.62 57.3495 225.222 60.8004 227.844 63.8304C231.895 68.5124 238.134 70.7624 241.987 75.8644C245.864 81 247.709 87.2706 248.986 93.348C250.62 101.129 251.536 109.106 250.66 116.991C249.259 129.608 242.106 138.989 234.794 149.255C232.358 152.676 229.91 156.216 228.975 160.222C228.6 162.143 228.37 164.088 228.287 166.042C227.837 171.738 226.291 176.984 225.126 182.502C223.081 192.195 218.607 202.209 209.237 207.675Z" fill="#EFF2FD"/>
<path d="M233.78 59.4014L233.764 60.4267L232.969 114.287L232.936 116.526L231.815 192.307H24.9552L23.8587 173.565L19.8494 104.977L17.1836 59.4014H233.78Z" fill="#5B5B5C"/>
<path d="M225.775 186.54H30.5782L23.8262 70.6987L227.649 70.3442L225.775 186.54Z" fill="#545554"/>
<path d="M126.095 68.5126C128.357 68.5126 130.19 66.6994 130.19 64.4626C130.19 62.2258 128.357 60.4126 126.095 60.4126C123.833 60.4126 122 62.2258 122 64.4626C122 66.6994 123.833 68.5126 126.095 68.5126Z" fill="#3F4040"/>
<path d="M226.056 186.54H30.8577L23.8262 70.6987L227.649 70.3442L226.056 186.54Z" fill="#49B3F7"/>
<path d="M227.519 79.7943L227.574 75.8252H24.1367L24.3777 79.7943H227.519Z" fill="#3A77BA"/>
<path d="M24.2463 77.6206H227.55L227.649 70.3442L23.8262 70.6987L24.2463 77.6206Z" fill="#864FF1"/>
<path d="M219.561 76.4099C220.796 76.4099 221.797 75.4202 221.797 74.1993C221.797 72.9785 220.796 71.9888 219.561 71.9888C218.327 71.9888 217.326 72.9785 217.326 74.1993C217.326 75.4202 218.327 76.4099 219.561 76.4099Z" fill="white"/>
<path d="M212.061 76.4099C213.296 76.4099 214.297 75.4202 214.297 74.1993C214.297 72.9785 213.296 71.9888 212.061 71.9888C210.827 71.9888 209.826 72.9785 209.826 74.1993C209.826 75.4202 210.827 76.4099 212.061 76.4099Z" fill="white"/>
<path d="M204.329 76.4099C205.563 76.4099 206.564 75.4202 206.564 74.1993C206.564 72.9785 205.563 71.9888 204.329 71.9888C203.094 71.9888 202.094 72.9785 202.094 74.1993C202.094 75.4202 203.094 76.4099 204.329 76.4099Z" fill="white"/>
<path d="M149.874 66.2517H136.719C136.239 66.2517 135.779 66.0632 135.44 65.7277C135.101 65.3922 134.91 64.9372 134.91 64.4627C134.91 64.2278 134.957 63.9952 135.048 63.7782C135.139 63.5611 135.272 63.3639 135.44 63.1978C135.608 63.0317 135.807 62.8999 136.027 62.81C136.246 62.7201 136.481 62.6738 136.719 62.6738H149.874C150.112 62.6738 150.347 62.7201 150.567 62.81C150.786 62.8999 150.986 63.0317 151.153 63.1978C151.321 63.3639 151.455 63.5611 151.546 63.7782C151.636 63.9952 151.683 64.2278 151.683 64.4627V64.4627C151.683 64.9372 151.493 65.3922 151.153 65.7277C150.814 66.0632 150.354 66.2517 149.874 66.2517V66.2517Z" fill="#545554"/>
<path d="M114.888 66.2517H101.733C101.253 66.2517 100.793 66.0632 100.454 65.7277C100.114 65.3922 99.9238 64.9372 99.9238 64.4627C99.9238 64.2278 99.9706 63.9952 100.062 63.7782C100.152 63.5611 100.286 63.3639 100.454 63.1978C100.622 63.0317 100.821 62.8999 101.04 62.81C101.26 62.7201 101.495 62.6738 101.733 62.6738H114.888C115.126 62.6738 115.361 62.7201 115.58 62.81C115.8 62.8999 115.999 63.0317 116.167 63.1978C116.335 63.3639 116.468 63.5611 116.559 63.7782C116.65 63.9952 116.697 64.2278 116.697 64.4627C116.697 64.9372 116.506 65.3922 116.167 65.7277C115.828 66.0632 115.368 66.2517 114.888 66.2517V66.2517Z" fill="#545554"/>
<g style="mix-blend-mode:screen" opacity="0.28">
<path d="M185.181 59.4014C137.187 87.2562 57.4903 100.183 19.8507 104.976L17.1855 59.4014H185.181Z" fill="#EBF7FD"/>
</g>
<path d="M70.6187 116.924C71.7919 117.838 73.0674 118.616 74.4202 119.242C75.6071 119.67 76.7175 120.282 77.7094 121.056C78.4109 121.778 78.9688 122.624 79.3541 123.55C82.6677 130.531 82.0857 140.726 87.8685 146.352C91.5424 149.927 98.2538 151.352 103.205 151.538C109.543 151.777 115.708 153.712 122.027 153.836C128.656 153.967 134.932 150.844 140.303 146.998C141.781 145.823 143.385 144.81 145.085 143.977C151.06 141.416 158.853 144.252 163.975 140.276C167.97 137.174 168.382 131.371 171.158 127.165C174.565 122.001 181.115 119.801 185.371 115.296C191.594 108.709 191.771 98.3759 189.106 89.7547C187.518 84.6193 186.675 80.964 189.459 76.217C191.657 72.4674 195.679 68.6479 196.512 64.297C196.845 62.5319 196.912 60.7278 196.712 58.9432C196.171 54.207 193.991 49.8012 190.542 46.4719C185.836 41.9612 179.053 39.5214 175.625 33.999C171.146 26.7782 176.406 17.904 172.307 10.3707C169.406 5.03856 163.208 2.27458 157.188 1.16438C151.037 0.0377973 144.713 0.244705 138.651 1.77082C132.667 3.28218 126.702 5.08908 120.487 3.84182C114.517 2.64322 108.841 -0.530684 102.59 0.0763954C95.7356 0.740858 90.1983 5.90995 86.1959 11.4535C82.4848 16.5889 79.5242 22.2212 75.1723 26.889C71.069 31.2925 66.7814 35.7704 64.3147 41.3273C60.5878 49.714 62.8292 56.8096 65.7642 64.8484C68.3376 71.8963 63.7134 77.3014 61.5175 83.6752C59.2804 90.1681 60.5517 99.9027 62.9343 106.235C64.4625 110.424 67.1198 114.121 70.6187 116.924V116.924Z" fill="#732C15"/>
<path d="M86.3389 101.767C84.7923 100.482 83.3416 99.0878 81.7573 97.848C81.151 97.3733 81.8975 96.451 82.5435 96.7979C84.3353 97.7599 86.1566 98.6214 87.8604 99.7352C89.4402 100.781 90.9597 101.914 92.4118 103.128C95.1598 105.395 98.0397 108.127 98.8106 111.732C99.5502 115.19 98.04 118.354 96.6111 121.416C95.6713 123.127 95.1015 125.013 94.9377 126.954C94.9008 127.823 94.974 128.694 95.1555 129.545C95.3975 130.278 95.7076 130.986 96.0817 131.662C96.2395 132.026 95.7979 132.396 95.4538 132.298C94.8095 132.033 94.2295 131.635 93.7525 131.131C93.2755 130.627 92.9123 130.029 92.687 129.376C92.1558 127.94 92.0714 126.38 92.4446 124.897C93.1918 121.31 95.7489 118.292 96.1915 114.629C96.6638 110.72 93.6074 107.764 90.8416 105.447C89.3555 104.202 87.8297 103.006 86.3389 101.767Z" fill="#7F391F"/>
<path d="M172.532 119.11C172.41 119.177 172.289 119.245 172.168 119.314C169.061 121.116 166.674 123.919 165.408 127.254C165.203 127.971 164.877 128.648 164.442 129.256C164.217 129.556 163.902 129.777 163.542 129.887C163.181 129.997 162.795 129.99 162.439 129.868C161.404 129.384 161.518 127.888 161.938 126.835C163.74 122.319 167.97 119.212 172.291 116.91C176.661 114.458 180.295 110.903 182.822 106.608C183.878 105.028 184.673 103.291 185.175 101.464C185.713 98.9918 185.827 96.448 185.51 93.9391C185.123 91.7983 184.619 89.6798 184 87.5931C183.984 87.5245 184.064 87.4378 184.134 87.4882C186.767 89.3808 187.859 92.7865 188.176 95.8817C188.637 100.179 187.771 104.514 185.693 108.315C183.616 112.117 180.423 115.207 176.536 117.181C175.218 117.857 173.833 118.404 172.532 119.11Z" fill="#7F391F"/>
<path d="M161.592 111.424C161.345 110.4 161.321 109.335 161.521 108.3C161.721 107.266 162.141 106.285 162.753 105.423C165.162 102.073 169.827 100.437 171.187 96.3402C171.196 96.3098 171.215 96.2831 171.24 96.2639C171.266 96.2448 171.297 96.2343 171.329 96.2339C171.361 96.2335 171.392 96.2433 171.418 96.2619C171.444 96.2804 171.463 96.3067 171.473 96.3369C172.815 100.005 169.135 102.702 166.757 104.802C165.141 106.229 163.913 107.733 163.91 109.976C163.907 112.47 165.286 114.456 165.741 116.821C165.777 116.963 165.765 117.112 165.709 117.247C165.652 117.382 165.553 117.496 165.426 117.571C165.299 117.647 165.151 117.68 165.004 117.666C164.857 117.652 164.718 117.591 164.608 117.493C162.895 116.14 162.006 113.487 161.592 111.424Z" fill="#7F391F"/>
<path d="M147.889 110.347C147.713 108.5 148.03 106.639 148.808 104.951C149.137 104.153 150.193 104.76 150.103 105.464C149.948 107.056 150.135 108.663 150.652 110.179C151.06 111.497 151.901 112.813 152.035 114.171C152.033 114.359 151.983 114.543 151.888 114.706C151.793 114.869 151.658 115.005 151.494 115.1C151.331 115.196 151.145 115.248 150.955 115.252C150.765 115.255 150.578 115.211 150.411 115.121C148.816 114.294 148.105 111.993 147.889 110.347Z" fill="#7F391F"/>
<path d="M71.7703 150.603C69.3017 152.494 66.7351 154.256 64.0809 155.882C63.1026 156.484 62.113 157.065 61.1121 157.626C60.4593 157.997 59.7959 158.359 59.1271 158.713C57.1566 159.899 54.9586 160.669 52.6721 160.972C50.7886 161.029 48.9095 160.759 47.1206 160.173C36.2623 157.109 26.3957 151.306 18.4884 143.335C17.6186 142.455 16.7185 141.396 16.8181 140.172C16.9498 138.604 18.7535 137.621 20.3365 137.751C21.9054 138.025 23.3855 138.665 24.6535 139.619C29.5639 142.669 34.8323 145.115 40.3419 146.902C43.4069 148.033 46.6625 148.572 49.9328 148.492C51.3292 148.395 52.7086 148.132 54.0417 147.71C55.2471 147.331 56.4216 146.862 57.5547 146.306C59.9856 145.07 62.3315 143.678 64.5771 142.137L71.7703 150.603Z" fill="#FFBF94"/>
<path d="M71.7703 150.603C69.3018 152.494 66.7352 154.256 64.081 155.882C61.1227 153.287 58.8775 149.992 57.5547 146.306C59.9857 145.07 62.3316 143.678 64.5771 142.137L71.7703 150.603Z" fill="#F49B73"/>
<path d="M156.378 173.343C157.704 175.463 159.201 177.473 160.854 179.355C162.29 181.018 163.833 182.589 165.472 184.057C168.291 183.95 177.644 184.455 180.515 184.057C175.932 180.061 171.571 172.334 167.644 167.72C167.117 167.106 166.601 166.485 166.095 165.857C164.933 164.482 163.908 162.999 163.033 161.43C162.564 160.558 162.195 159.636 161.933 158.683L148.318 157.589C149.263 159.738 150.294 162.022 151.416 164.328C152.898 167.423 154.554 170.433 156.378 173.343V173.343Z" fill="#FFBF94"/>
<path d="M151.416 164.328C152.897 167.423 154.554 170.433 156.377 173.343C162.768 172.955 166.064 169.943 167.643 167.72C167.117 167.106 166.601 166.485 166.094 165.858C164.933 164.482 163.908 163 163.033 161.43L154.726 161.722C153.574 162.529 152.469 163.4 151.416 164.328Z" fill="#F49B73"/>
<path d="M146.368 124.253C139.079 121.82 133.32 120.901 126.032 118.468C123.279 117.549 125.798 118.967 122.909 118.666C120.459 118.481 117.995 118.539 115.557 118.841C108.616 119.499 101.709 120.434 94.8366 121.645C92.7138 121.888 90.6609 122.545 88.7972 123.579C86.6454 124.957 78.5941 127.27 61.4952 142.847C59.1565 143.929 69.5679 156.789 74.8685 159.228C81.4865 162.274 95.6295 147.222 100.509 139.631C100.651 139.25 100.929 138.934 101.29 138.742C101.651 138.55 102.071 138.494 102.47 138.586C113.632 139.459 124.794 140.333 135.955 141.206C136.402 141.195 136.84 141.325 137.207 141.576C137.495 141.882 137.685 142.264 137.754 142.677C140.37 152.267 145.172 161.138 151.79 168.61C152.119 169.049 152.56 169.395 153.068 169.612C153.561 169.733 154.077 169.732 154.57 169.608C160.177 168.63 165.496 166.437 170.144 163.185C170.52 162.981 170.805 162.645 170.942 162.244C170.97 161.813 170.834 161.387 170.562 161.049C165.106 152.304 160.516 143.06 156.854 133.444C156.684 132.997 156.513 132.545 156.334 132.095C155.735 130.583 154.805 129.219 153.612 128.102C152.419 126.985 150.992 126.141 149.433 125.631L146.368 124.253Z" fill="#FFC652"/>
<path d="M111.336 98.3022C111.356 99.2465 111.376 100.193 111.396 101.137C111.411 101.844 111.426 102.551 111.441 103.256C111.458 104.203 111.478 105.15 111.498 106.099C111.516 106.981 111.536 107.866 111.553 108.751L111.568 109.52C111.603 111.193 111.637 112.866 111.671 114.54L111.768 119.246C111.743 119.723 111.828 120.199 112.016 120.638C112.279 121.059 112.651 121.404 113.093 121.637C115.422 123.035 118.082 123.802 120.806 123.858C123.53 123.914 126.221 123.259 128.607 121.958C128.92 121.786 129.173 121.524 129.331 121.206C129.49 120.889 129.547 120.531 129.494 120.181C129.261 118.663 129.113 117.134 129.049 115.6C128.992 114.228 129.003 112.856 129.082 111.482C129.102 111.153 129.124 110.822 129.152 110.493C129.229 109.542 129.337 108.593 129.482 107.648C129.662 106.437 129.898 105.237 130.192 104.049C130.207 103.985 130.224 103.918 130.239 103.854L129.732 103.706L124.613 102.205L122.716 101.647L111.336 98.3022Z" fill="#FFAF79"/>
<path d="M0.828759 125.684C1.08694 125.496 1.399 125.394 1.71957 125.394C3.9581 125.256 10.7794 130.763 11.5665 130.025C9.76002 128.579 8.74174 127.448 6.93538 126.002C6.02749 125.275 4.31185 123.535 5.24337 122.838C5.46233 122.711 5.7077 122.635 5.96068 122.617C6.21366 122.599 6.46756 122.638 6.70292 122.731C9.83635 123.635 11.4803 127.149 14.4261 128.539C14.299 126.948 14.4439 125.347 14.8545 123.804C15.0034 123.245 15.259 122.621 15.816 122.446C16.1441 122.393 16.4805 122.46 16.7616 122.636C17.0427 122.811 17.249 123.083 17.3413 123.399C17.5049 124.036 17.5794 124.692 17.5626 125.35C17.7818 128.12 19.9508 130.276 21.6349 132.5C23.3189 134.724 26.399 138.667 24.783 140.94L23.0233 143.87C20.0677 145.831 17.7149 146.201 14.7918 144.194C12.7283 142.777 11.1527 140.445 8.68645 139.971C7.58895 139.76 6.73604 139.393 5.66214 139.085C4.58824 138.777 2.99534 137.764 3.50476 136.78C5.33237 136.897 7.46641 137.418 9.29408 137.535C7.88463 136.263 5.94345 135.795 4.166 135.111C2.38855 134.426 -0.56291 132.041 0.0935555 130.791C0.285527 130.426 0.819333 130.445 1.22788 130.525C2.98604 130.87 9.4779 133.879 9.55219 133.352C6.7806 131.852 4.11784 130.162 1.58317 128.297C0.796128 127.615 0.029376 126.352 0.828759 125.684Z" fill="#FFBF94"/>
<path d="M138.661 172.464H94.8516V184.362H138.661V172.464Z" fill="#FFC652"/>
<path d="M95.0215 138.423C94.3433 141.696 93.4028 144.91 92.2091 148.035C91.2953 149.927 90.5246 151.883 89.9032 153.887C88.9558 157.727 89.8654 161.754 90.8536 165.584C91.9337 169.77 95.9088 177.535 97.6041 178.542C98.5884 179.126 100.924 178.956 102.071 179.014C106.07 179.218 110.032 179.474 114.034 179.435C118.183 179.395 122.329 179.244 126.472 178.983C129.081 178.818 131.686 178.609 134.288 178.357C134.769 178.351 135.242 178.235 135.67 178.018C136.098 177.8 136.469 177.488 136.754 177.105C138.898 174.446 141.353 171.532 142.183 168.148C142.385 167.321 142.49 166.494 142.731 165.657L143.588 162.68L145.301 156.728C146.031 154.189 146.762 151.649 147.493 149.11L144.277 136.789L128.677 130.728C128.677 130.728 93.8539 131.279 94.1325 132.105C94.2738 133.847 94.2738 135.598 94.1325 137.34L95.0215 138.423Z" fill="#FFC652"/>
<path d="M90.5484 149.004C91.6696 145.284 92.9802 141.692 94.3718 138.067C94.3764 138.053 94.3864 138.041 94.3998 138.034C94.4132 138.027 94.4288 138.025 94.4435 138.029C94.4582 138.033 94.4707 138.042 94.4784 138.055C94.4862 138.068 94.4886 138.084 94.4851 138.098C93.8586 141.359 93.2564 144.583 92.3889 147.794C91.5595 150.865 90.5638 153.686 90.6111 156.886C90.7395 160.016 91.3315 163.11 92.368 166.07C93.4115 169.314 95.1866 172.576 95.8967 175.858C95.9429 176.071 95.8754 176.402 95.6615 176.348C95.5812 176.315 95.517 176.253 95.4826 176.174C93.9107 173.583 92.5531 170.871 91.4229 168.064C91.1075 167.268 90.8053 166.466 90.5268 165.656C89.9841 164.114 89.5553 162.535 89.2439 160.931C88.2001 155.96 89.5525 152.308 90.5484 149.004Z" fill="#F7A845"/>
<path d="M138.002 174.538C138.086 174.413 138.174 174.291 138.259 174.17C138.859 173.313 139.364 172.388 139.925 171.519C140.577 170.461 141.122 169.343 141.552 168.179C142.755 165.483 143.533 162.622 143.861 159.693C144.032 156.87 143.144 154.051 142.825 151.257C142.488 148.178 142.471 145.073 142.775 141.99C142.776 141.95 142.793 141.912 142.823 141.884C142.852 141.856 142.891 141.841 142.932 141.841C142.972 141.841 143.011 141.856 143.04 141.884C143.07 141.912 143.087 141.95 143.088 141.99C143.37 145.447 143.8 148.963 144.332 152.392C144.469 153.27 144.626 154.138 144.768 155.003C144.843 155.022 144.911 155.06 144.967 155.113C145.023 155.166 145.064 155.232 145.086 155.306C146.515 159.911 148.844 164.195 151.942 167.913C153.098 169.255 154.523 168.705 156.051 168.378C157.294 168.112 158.538 167.82 159.77 167.51C162.312 166.869 164.7 165.827 167.201 165.08C167.236 165.07 167.271 165.121 167.239 165.145C164.833 166.819 162.202 168.151 159.423 169.103C157.339 169.918 153.61 171.567 151.634 169.785C150.782 168.903 150.018 167.942 149.352 166.916C148.449 165.741 147.612 164.519 146.844 163.254C146.207 162.191 145.644 161.086 145.158 159.947C145.133 160.425 145.082 160.901 145.003 161.373C144.445 164.214 143.506 166.968 142.212 169.564C141.811 170.417 141.361 171.248 140.866 172.052C140.338 172.902 139.56 173.618 138.972 174.44C138.704 174.91 138.318 175.304 137.851 175.582C137.76 175.626 137.662 175.653 137.561 175.662C137.596 175.253 137.749 174.863 138.002 174.538V174.538Z" fill="#F7A845"/>
<path d="M101.823 172.703C103.058 172.888 104.268 173.514 105.505 173.787C106.749 174.061 108.026 174.253 109.288 174.436C112.181 174.842 115.103 175.027 118.025 174.988C123.742 174.955 129.425 174.107 134.897 172.469C135.032 172.428 135.129 172.641 134.995 172.699C132.33 173.951 129.546 174.94 126.684 175.652C123.674 176.336 120.608 176.746 117.523 176.878C114.504 176.985 111.481 176.809 108.495 176.353C106.242 176.021 102.606 175.512 101.27 173.414C101.019 173.02 101.432 172.644 101.823 172.703Z" fill="#F7A845"/>
<path d="M100.967 168.835C102.985 169.006 104.983 169.359 106.937 169.889C109.139 170.344 111.368 170.665 113.61 170.851C118.057 171.158 122.526 170.922 126.915 170.148C126.919 170.147 126.923 170.148 126.926 170.15C126.929 170.152 126.931 170.154 126.932 170.158C126.933 170.161 126.932 170.165 126.931 170.168C126.929 170.171 126.926 170.174 126.923 170.175C122.587 171.764 117.982 172.51 113.361 172.372C109.351 172.293 104.038 171.823 100.787 169.264C100.61 169.125 100.761 168.83 100.967 168.835Z" fill="#F7A845"/>
<path d="M111.498 106.099C111.516 106.981 111.536 107.866 111.553 108.751L111.568 109.52C111.603 111.193 111.637 112.867 111.67 114.54C116.629 119.515 125.585 117.925 129.049 115.6C128.992 114.229 129.002 112.856 129.082 111.482C129.102 111.154 129.124 110.822 129.152 110.494C129.229 109.542 129.337 108.593 129.481 107.648C128.747 107.189 128.204 106.86 128.204 106.86C128.204 106.86 125.945 106.739 123 106.591C119.179 106.4 114.2 106.165 111.498 106.099Z" fill="#F59D75"/>
<path d="M109.115 120.339C109.147 120.134 109.405 120.083 109.561 120.16C110.309 120.526 110.714 121.368 111.277 121.962C111.998 122.71 112.822 123.355 113.725 123.877C115.804 125.12 118.126 125.912 120.538 126.2C122.828 126.516 125.162 126.205 127.287 125.302C129.098 124.347 130.721 123.081 132.082 121.562C132.092 121.554 132.104 121.548 132.116 121.547C132.129 121.545 132.142 121.548 132.153 121.554C132.164 121.561 132.173 121.57 132.178 121.582C132.183 121.594 132.184 121.607 132.181 121.619C131.007 126.282 124.545 128.306 120.292 127.863C117.651 127.614 115.113 126.719 112.908 125.26C111.505 124.297 108.815 122.27 109.115 120.339Z" fill="#F7A845"/>
<path d="M14.8539 123.804C14.875 123.513 14.9756 123.233 15.1449 122.994C15.3142 122.754 15.546 122.565 15.8154 122.446C16.1435 122.393 16.48 122.46 16.7611 122.636C17.0422 122.811 17.2484 123.083 17.3408 123.399C17.5044 124.036 17.5789 124.692 17.5621 125.35C17.7813 128.12 19.9503 130.276 21.6344 132.5C23.3184 134.724 26.3985 138.667 24.7825 140.94L23.0228 143.87C20.0672 145.831 19.4367 145.465 16.5136 143.457C15.5923 142.824 17.5899 139.245 16.9896 136.338C16.1336 132.191 13.9779 129.744 14.8539 123.804Z" fill="#FFBF94"/>
<path d="M162.839 64.8961C162.673 74.3199 160.48 83.6008 156.406 92.1213C155.208 94.8001 153.623 97.293 151.702 99.5225C149.653 101.651 147.314 103.487 144.752 104.976C138.797 108.665 132.385 111.576 125.675 113.639C123.505 114.454 121.175 114.764 118.865 114.545C116.138 114.11 98.1058 106.063 92.9977 92.8092C91.8669 89.8751 89.6886 83.3126 90.2908 80.2295C92.0785 71.0769 93.8671 61.9199 96.1057 52.8648C97.8933 45.6335 100.144 38.155 105.363 32.7898C107.619 30.6068 110.118 28.6842 112.813 27.0589C115.329 25.315 118.054 23.8851 120.925 22.8018C126.284 20.9831 132.133 21.4325 137.756 22.1233C141.779 22.6176 145.898 23.2614 149.402 25.2769C152.151 26.9759 154.517 29.2182 156.349 31.8632C162.165 39.7955 165.017 49.4777 164.419 59.2578L162.839 64.8961Z" fill="#FFBF94"/>
<path d="M159.243 75.7611C159.243 75.7611 154.388 72.6845 154.741 68.8629C151.914 68.9156 149.169 67.9278 147.037 66.0913C144.905 64.2547 143.54 61.7004 143.205 58.9242C139.071 59.9219 134.713 59.4159 130.925 57.4988C125.077 54.27 125.17 46.5122 125.17 46.5122C125.17 46.5122 124.629 48.6682 120.225 50.4756C115.82 52.2831 112.385 48.3781 112.385 48.3781C112.842 50.0834 112.759 51.8865 112.146 53.5435C111.533 55.2004 110.421 56.6314 108.96 57.6429C107.607 58.8002 105.915 59.4996 104.132 59.6389C102.348 59.7783 100.567 59.3502 99.047 58.4173C99.047 58.4173 98.3434 63.6301 94.0966 64.1742C89.8499 64.7183 89.9553 50.9433 89.9553 50.9433C89.9553 50.9433 109.145 42.1272 109.337 41.787C109.529 41.4468 132.583 32.9792 132.927 33.1692C133.271 33.3591 152.227 44.9404 153.259 45.5102C154.291 46.0799 162.857 66.8739 163.505 68.124C164.153 69.3742 159.243 75.7611 159.243 75.7611Z" fill="#F49B73"/>
<path d="M153.795 73.8168C153.555 72.7069 152.988 71.6922 152.166 70.9007C150.857 69.3993 149.243 68.1867 147.429 67.3417C145.604 66.499 143.548 66.2752 141.58 66.7047C140.591 66.9446 139.497 67.6074 139.526 68.6145C139.555 68.9057 139.656 69.1855 139.819 69.4297C139.982 69.6739 140.202 69.8753 140.462 70.0165C140.982 70.2933 141.538 70.4976 142.115 70.6236C144.794 71.3763 147.308 72.613 149.53 74.2712C150.173 74.8495 150.936 75.2808 151.766 75.5341C152.185 75.6457 152.63 75.5983 153.015 75.4013C153.4 75.2042 153.696 74.8717 153.845 74.4694C154.038 73.6036 153.275 72.8445 152.585 72.2786L153.795 73.8168Z" fill="#692E12"/>
<path d="M111.83 64.7094C110.607 64.4956 109.369 64.38 108.127 64.3639C106.62 64.5386 105.178 65.0739 103.926 65.9233C103.295 66.4103 102.531 66.6983 101.732 66.75C101.47 66.7226 101.215 66.6418 100.985 66.5126C100.756 66.3833 100.555 66.2086 100.397 65.9992C100.239 65.7898 100.126 65.5503 100.066 65.2958C100.006 65.0413 99.9995 64.7772 100.047 64.5201C100.317 63.7562 100.862 63.1169 101.577 62.7239C105.207 60.2661 112.34 57.7516 115.218 61.9557C115.899 62.9514 116.239 65.147 111.83 64.7094Z" fill="#692E12"/>
<path d="M126.316 92.1371C125.583 91.2709 124.578 90.6717 123.461 90.4345C123.316 90.4013 123.17 90.3761 123.023 90.3505C122.919 90.333 122.813 90.3216 122.708 90.3164C122.412 90.295 122.115 90.295 121.819 90.3161C121.244 90.3679 120.681 90.5127 120.153 90.7448C119.939 90.8035 119.711 90.7766 119.518 90.6699C119.325 90.5632 119.182 90.3854 119.121 90.1751C119.066 89.9643 119.095 89.7409 119.202 89.5509C119.31 89.3609 119.487 89.219 119.697 89.1544C121.022 88.6237 122.48 88.5109 123.873 88.8315C125.265 89.152 126.523 89.8903 127.475 90.9452C127.629 91.1001 127.717 91.3076 127.722 91.525C127.726 91.7423 127.646 91.9531 127.498 92.114C127.344 92.2705 127.133 92.3606 126.912 92.3649C126.691 92.3693 126.477 92.2874 126.316 92.1371L126.316 92.1371Z" fill="#DD664A"/>
<path d="M163.397 78.9965C161.023 78.0195 159.138 76.1526 158.152 73.8042C157.167 71.4558 157.162 68.817 158.138 66.465C156.532 67.2189 154.73 67.4669 152.976 67.1754C151.222 66.8839 149.601 66.067 148.332 64.8351C147.063 63.6032 146.206 62.0157 145.879 60.287C145.551 58.5584 145.768 56.7719 146.5 55.1691C145.022 56.2814 143.252 56.9499 141.401 57.0949C136.731 57.5199 132.097 54.9291 129.397 51.1375C126.81 47.2203 125.618 42.5625 126.007 37.9001C126.162 42.3918 123.816 45.7179 120.071 46.9951C118.166 47.5573 116.149 47.6332 114.206 47.2158C112.264 46.7984 110.461 45.9013 108.964 44.6081C111.723 47.3946 111.221 52.4675 108.253 55.0365C105.286 57.6055 100.549 57.6291 97.2435 55.5024C97.6586 56.686 97.7469 57.9577 97.4993 59.1863C97.2516 60.4149 96.677 61.556 95.8346 62.4917C94.1241 64.3409 92.0338 65.8073 89.7037 66.7928C87.1913 63.9471 86.3748 60.0039 86.1988 56.2301C85.7658 45.8777 89.3971 35.7606 96.3332 27.9951C98.8845 25.2714 101.662 22.7638 104.636 20.4983C106.48 18.9399 108.498 17.5941 110.649 16.4867C115.057 14.3945 120.133 14.2408 125.018 14.4362C129.247 14.5275 133.453 15.0848 137.558 16.0978C143.767 17.7541 149.431 20.9388 155.017 24.0916C158.685 26.1623 162.5 28.3678 164.76 31.8973C166.568 34.7199 167.192 38.109 168.505 41.1876C169.582 43.7161 171.132 46.0503 171.949 48.6726C173.636 54.0882 172.003 59.9119 170.318 65.3284C169.154 69.0704 167.964 72.8042 166.747 76.5299C166.397 77.603 165.664 78.916 164.544 78.7048L163.397 78.9965Z" fill="#732C15"/>
<path d="M158.899 76.9682C159.109 76.4015 159.513 75.9255 160.041 75.6232C160.569 75.3209 161.187 75.2114 161.789 75.3137C162.621 75.5299 163.351 76.0271 163.851 76.7194C165.057 78.3373 165.627 80.3333 165.456 82.336C165.278 84.3225 164.739 86.2609 163.864 88.058C163.482 89.0043 162.946 89.8824 162.277 90.6572C161.604 91.3768 160.745 91.9013 159.792 92.1742C158.84 92.4471 157.83 92.4581 156.872 92.2061C155.914 91.9541 155.043 91.4486 154.354 90.744C153.664 90.0393 153.182 89.1621 152.959 88.2067L158.899 76.9682Z" fill="#FFBF94"/>
<path d="M159.732 79.2042C159.732 79.2042 163.444 79.0226 162.207 84.8102C160.971 90.5978 156.383 88.7341 156.383 88.7341C157.583 87.4651 158.501 85.9615 159.078 84.3201C159.655 82.6787 159.878 80.936 159.732 79.2042V79.2042Z" fill="#F49B73"/>
<path d="M94.6475 66.1322C94.493 65.4412 94.1969 64.7888 93.7773 64.2155C93.3578 63.6421 92.8238 63.1599 92.2084 62.7988C91.7506 62.5181 91.2326 62.3476 90.6961 62.301C89.2639 62.2161 88.0328 63.3122 87.2408 64.4955C86.2544 66.0626 85.6542 67.8371 85.4885 69.6757C85.3227 71.5144 85.5961 73.3658 86.2866 75.0808C86.5515 75.8432 86.9727 76.5434 87.5236 77.1375C88.2822 77.8337 89.2867 78.2078 90.3213 78.1794C91.3558 78.1509 92.3378 77.7223 93.0562 76.9855L94.6475 66.1322Z" fill="#FFBF94"/>
<path d="M90.8124 75.7985C90.8124 75.7985 86.4505 76.4461 87.5122 70.6246C88.7417 63.8835 92.7886 66.9625 92.7886 66.9625C91.4568 69.7201 90.7808 72.7426 90.8124 75.7985V75.7985Z" fill="#F49B73"/>
<path d="M155.062 92.8914C155.192 93.3443 155.454 93.749 155.817 94.0542C156.179 94.3595 156.625 94.5516 157.098 94.6063C157.57 94.661 158.049 94.5758 158.473 94.3616C158.897 94.1473 159.247 93.8136 159.479 93.4025C159.711 92.9915 159.814 92.5217 159.776 92.0525C159.738 91.5832 159.56 91.1357 159.265 90.7664C158.97 90.3971 158.571 90.1227 158.118 89.9778C157.665 89.8329 157.179 89.8241 156.721 89.9525C156.107 90.1247 155.587 90.531 155.276 91.0822C154.965 91.6333 154.888 92.2841 155.062 92.8914V92.8914Z" fill="#EECAB9"/>
<path d="M87.9721 79.4266C88.1019 79.8795 88.3646 80.2842 88.727 80.5894C89.0893 80.8946 89.535 81.0867 90.0078 81.1414C90.4805 81.1961 90.9591 81.111 91.3829 80.8967C91.8067 80.6824 92.1568 80.3487 92.3888 79.9377C92.6208 79.5267 92.7244 79.0568 92.6864 78.5876C92.6484 78.1184 92.4706 77.6708 92.1754 77.3015C91.8802 76.9323 91.481 76.6578 91.0281 76.513C90.5752 76.3681 90.0891 76.3593 89.6311 76.4877C89.3271 76.5729 89.0429 76.7166 88.795 76.9104C88.5471 77.1042 88.3402 77.3444 88.1861 77.6174C88.0321 77.8903 87.9339 78.1905 87.8972 78.5009C87.8604 78.8114 87.8859 79.1259 87.9721 79.4266V79.4266Z" fill="#EECAB9"/>
<path d="M156.254 91.8593C156.321 92.0932 156.457 92.3022 156.644 92.4599C156.831 92.6175 157.061 92.7167 157.305 92.745C157.55 92.7732 157.797 92.7293 158.016 92.6186C158.235 92.5079 158.415 92.3356 158.535 92.1233C158.655 91.911 158.708 91.6684 158.689 91.4261C158.669 91.1837 158.577 90.9526 158.425 90.7618C158.273 90.5711 158.066 90.4294 157.832 90.3546C157.599 90.2798 157.347 90.2752 157.111 90.3415C156.954 90.3855 156.807 90.4597 156.679 90.5598C156.551 90.6599 156.444 90.784 156.365 90.9249C156.285 91.0659 156.234 91.2209 156.215 91.3813C156.196 91.5416 156.21 91.704 156.254 91.8593Z" fill="white"/>
<path d="M88.969 78.6904C89.036 78.9243 89.1717 79.1333 89.3588 79.2909C89.546 79.4485 89.7762 79.5478 90.0203 79.576C90.2645 79.6043 90.5116 79.5603 90.7305 79.4496C90.9494 79.3389 91.1302 79.1666 91.25 78.9543C91.3698 78.742 91.4233 78.4994 91.4037 78.2571C91.3841 78.0147 91.2922 77.7836 91.1398 77.5929C90.9873 77.4022 90.7811 77.2604 90.5472 77.1856C90.3133 77.1108 90.0623 77.1063 89.8258 77.1726C89.5086 77.2615 89.2402 77.4714 89.0795 77.756C88.9189 78.0407 88.8791 78.3768 88.969 78.6904V78.6904Z" fill="white"/>
<path d="M69.4974 69.7535C71.5377 68.2544 73.0198 66.1304 73.7132 63.712C75.1671 58.3589 72.304 52.7041 72.9886 47.203C74.1797 37.6195 84.953 32.5547 90.3914 24.5353C93.6518 19.7267 95.7099 13.1276 101.339 11.541C106.355 10.1291 111.25 13.6018 116.066 15.5735C121.391 17.7371 127.283 18.1278 132.852 16.6865C137.838 15.3832 142.781 12.6031 147.826 13.6572C153.208 14.7858 156.711 19.9148 158.867 24.9229C161.023 29.9284 162.551 35.4307 166.399 39.3202C172.592 45.5821 182.83 45.7905 190.047 50.8662C192.948 52.9326 195.246 55.7185 196.711 58.9433C196.171 54.207 193.991 49.8012 190.542 46.472C185.835 41.9612 179.052 39.5214 175.625 33.999C171.146 26.7783 176.406 17.9041 172.307 10.3707C169.406 5.03858 163.208 2.2746 157.188 1.1644C151.037 0.0378174 144.713 0.244725 138.651 1.77084C132.667 3.2822 126.702 5.0891 120.487 3.84184C114.517 2.64322 108.841 -0.530684 102.59 0.0763954C95.7355 0.740858 90.1982 5.90995 86.1958 11.4535C82.4847 16.5889 79.5241 22.2212 75.1722 26.889C71.0689 31.2925 66.7813 35.7704 64.3146 41.3273C62.3171 46.0556 61.7436 51.254 62.6631 56.297C63.5826 61.3401 65.9558 66.0129 69.4974 69.7535V69.7535Z" fill="#7F391F"/>
<path d="M134.535 20.5376C136.871 19.147 139.633 18.6259 142.323 19.0678C145.091 19.5168 147.655 20.7931 149.668 22.725C154.166 26.9593 155.703 33.0261 158.425 38.3375C159.662 41.0079 161.535 43.3423 163.883 45.1412C166.188 46.6992 168.766 47.8182 171.486 48.4408C174.507 49.1975 177.534 49.5831 180.263 51.1868C182.675 52.5942 184.704 54.5617 186.174 56.9189C188.017 59.9129 187.665 62.9868 185.807 65.8935C184.183 68.4335 181.779 70.3833 178.693 70.6124C178.571 70.6106 178.451 70.5738 178.349 70.5064C178.248 70.439 178.168 70.3438 178.119 70.2325C178.071 70.1211 178.056 69.9983 178.077 69.8788C178.097 69.7593 178.152 69.6483 178.235 69.559C180.138 68.1237 181.776 66.3733 183.075 64.3853C183.742 63.3671 184.114 62.1875 184.15 60.9748C183.899 59.6847 183.245 58.5049 182.281 57.6017C180.731 55.8394 178.737 54.5145 176.501 53.7619C173.912 52.9159 171.16 52.7323 168.551 51.9485C163.517 50.4983 159.209 47.2465 156.467 42.8267C153.633 38.1733 152.489 32.7271 149.596 28.107C148.195 25.7236 146.097 23.8165 143.577 22.6376C140.886 21.5309 137.929 21.2173 135.062 21.7345C134.366 21.8708 133.838 20.9213 134.535 20.5376Z" fill="#7F391F"/>
<path d="M80.8684 55.1015C81.7948 53.3097 82.3198 51.3416 82.4077 49.331C82.3837 47.3959 82.038 45.4794 82.1024 43.5402C82.094 41.5976 82.6731 39.6968 83.7652 38.0821C85.1111 36.2178 87.1149 35.2198 88.9364 33.8984C92.3632 31.4123 93.83 26.8666 96.402 23.6304C99.2368 20.0634 103.258 18.0552 107.857 19.1724C110.245 19.8933 112.55 20.8594 114.735 22.0549C115.888 22.6359 117.11 23.0728 118.372 23.3556C119.618 23.6054 120.876 23.4906 122.116 23.6847C122.145 23.6894 122.149 23.7264 122.133 23.7455C120.978 25.1231 118.791 25.1063 117.151 24.9129C114.985 24.578 112.867 23.9853 110.845 23.1477C108.89 22.4221 106.706 21.6572 104.588 22.0136C102.489 22.5232 100.677 23.8314 99.5475 25.6539C97.0111 29.1937 95.8425 33.5591 92.4856 36.5353C90.8991 37.942 88.7932 38.6846 87.2728 40.1218C86.1057 41.4673 85.4287 43.161 85.35 44.932C84.9049 48.3684 85.5296 54.3244 81.5679 55.9766C81.0205 56.2049 80.6915 55.5176 80.8684 55.1015Z" fill="#7F391F"/>
<path d="M105.092 39.9385C105.36 35.5184 109.418 32.5228 113.443 31.3146C115.808 30.6045 118.151 30.8267 120.581 30.8943C121.924 30.982 123.273 30.8518 124.574 30.5087C125.795 30.1373 126.897 29.5665 128.07 29.0915C128.153 29.058 128.203 29.1605 128.176 29.2241C126.154 33.9272 120.208 32.7083 116.211 33.2972C111.696 33.9623 108.871 37.1418 105.92 40.2647C105.853 40.3306 105.767 40.3757 105.675 40.3944C105.582 40.4131 105.486 40.4046 105.398 40.37C105.31 40.3353 105.234 40.276 105.18 40.1994C105.125 40.1227 105.095 40.032 105.092 39.9385Z" fill="#7F391F"/>
<path d="M131.581 41.9038C131.733 39.9659 132.183 38.0622 132.914 36.258C133.656 34.3443 135.056 32.12 134.573 29.9929C134.558 29.9315 134.563 29.8667 134.587 29.8081C134.611 29.7495 134.654 29.7002 134.709 29.6676C134.764 29.635 134.828 29.6207 134.892 29.6269C134.956 29.6331 135.016 29.6594 135.063 29.702C137.284 31.7839 135.735 34.8391 135.139 37.3172C134.466 40.115 134.239 43.2545 135.803 45.8141C137.315 48.2881 140.132 48.7293 142.857 48.6196C144.286 48.6302 145.677 48.1633 146.805 47.2946C147.563 46.4639 148.083 45.4478 148.311 44.3515C148.358 44.1835 148.448 44.0304 148.573 43.9069C148.697 43.7833 148.852 43.6935 149.022 43.6459C149.191 43.5983 149.37 43.5947 149.542 43.6352C149.714 43.6758 149.872 43.7593 150.001 43.8776C152.813 46.4495 149.918 50.7175 147.235 51.987C145.379 52.7465 143.367 53.0584 141.364 52.8972C139.362 52.7359 137.428 52.1061 135.72 51.0597C134.299 50.0078 133.174 48.6149 132.449 47.0128C131.725 45.4106 131.426 43.6522 131.581 41.9038Z" fill="#7F391F"/>
<path d="M151.077 58.4022C150.957 57.0994 151.217 55.7899 151.827 54.6292C152.413 53.5025 153.357 52.5981 154.515 52.0563C154.545 52.0405 154.59 52.0736 154.567 52.1054C152.719 54.6324 152.158 58.5398 154.626 60.8715C155.161 61.3974 155.831 61.7684 156.564 61.9443C157.296 62.1202 158.064 62.0943 158.783 61.8694C159.355 61.6773 160.287 61.1669 160.424 60.5134C160.589 59.7247 159.739 59.1319 159.13 58.8083C159.029 58.7513 158.945 58.6694 158.886 58.5706C158.827 58.4719 158.795 58.3597 158.793 58.245C158.791 58.1303 158.819 58.0171 158.874 57.9163C158.93 57.8155 159.01 57.7306 159.109 57.67C161.588 56.5094 163.734 59.1755 163.01 61.5497C162.155 64.3543 158.402 65.2049 155.87 64.4504C154.549 64.0346 153.386 63.2353 152.531 62.1565C151.677 61.0778 151.17 59.7696 151.077 58.4022V58.4022Z" fill="#7F391F"/>
<path d="M163.84 71.4423C163.75 70.0656 164.002 68.6881 164.575 67.4301C165.147 66.172 166.022 65.0716 167.123 64.225C167.212 64.1516 167.374 64.2404 167.3 64.3546C166.432 65.7468 165.947 67.3394 165.893 68.9743C165.839 70.6092 166.218 72.2297 166.993 73.6749C167.815 75.0778 169.06 76.1918 170.554 76.8614C172.049 77.5331 173.746 77.6593 175.162 78.5285C177.627 80.0412 178.435 83.3036 178.507 85.99C178.578 88.6451 177.839 91.3787 175.383 92.7812C174.876 93.0703 174.244 92.3695 174.717 91.9598C177.056 89.9355 176.822 86.231 175.858 83.5774C175.617 82.7958 175.188 82.0838 174.607 81.5027C174.026 80.9216 173.311 80.4886 172.523 80.2411C171.006 79.884 169.549 79.3125 168.196 78.5443C166.984 77.7528 165.965 76.7053 165.212 75.4772C164.458 74.2491 163.99 72.871 163.84 71.4423V71.4423Z" fill="#7F391F"/>
<path d="M96.0173 44.2376C96.1665 44.2768 96.3027 44.3537 96.4127 44.4607C96.5228 44.5677 96.6027 44.7012 96.6448 44.848C96.6869 44.9949 96.6897 45.15 96.6528 45.2982C96.6159 45.4464 96.5407 45.5825 96.4345 45.6933C94.8135 47.0027 95.8447 48.8014 97.6463 49.2219C98.5424 49.3743 99.4642 49.2325 100.271 48.8182C101.078 48.404 101.726 47.74 102.115 46.9276C102.951 45.2252 100.935 43.419 100.718 41.6908C100.541 40.1916 100.948 38.6821 101.857 37.4698C101.867 37.4572 101.882 37.4712 101.881 37.4828C101.633 39.1819 101.958 40.9145 102.806 42.4125C103.51 43.6382 104.535 44.6947 104.567 46.1875C104.623 48.7418 102.119 51.1082 99.7996 51.7799C98.6292 52.1386 97.3667 52.0628 96.2488 51.5666C95.1309 51.0704 94.2344 50.188 93.7274 49.0848C92.9042 47.1247 93.2198 43.894 96.0173 44.2376Z" fill="#7F391F"/>
<path d="M75.5462 70.9758C75.3576 68.8831 75.9947 66.7994 77.324 65.1605C78.8592 63.3329 80.8397 61.9221 83.0788 61.061C85.4998 60.015 87.7934 59.2897 89.0035 56.7643C89.0195 56.7366 89.0425 56.7134 89.0702 56.6971C89.098 56.6809 89.1295 56.672 89.1617 56.6714C89.194 56.6708 89.2258 56.6786 89.2542 56.6938C89.2825 56.7091 89.3063 56.7314 89.3233 56.7586C91.1509 60.8361 84.4133 62.5761 82.0328 64.0256C81.0188 64.5574 80.1312 65.297 79.4291 66.195C78.727 67.0931 78.2266 68.1288 77.9614 69.2332C77.5813 71.5229 79.0785 73.9808 80.4531 75.7078C80.9559 76.3394 79.9661 76.9425 79.422 76.5244C78.4192 75.8666 77.5309 75.0522 76.7917 74.1131C76.1191 73.1861 75.691 72.1078 75.5462 70.9758V70.9758Z" fill="#7F391F"/>
<path d="M65.1503 90.1847C65.5172 88.2377 66.0851 86.3331 66.8449 84.5007C67.2659 83.4914 67.7102 82.4881 68.1917 81.5056C68.69 80.4889 69.3517 79.6575 69.9313 78.7129C69.9472 78.6866 69.972 78.6669 70.0014 78.6571C70.0307 78.6474 70.0625 78.6482 70.0912 78.6596C70.1199 78.671 70.1436 78.6921 70.158 78.7192C70.1724 78.7462 70.1765 78.7775 70.1697 78.8073C70.0273 79.5923 70.0493 80.3593 69.8597 81.159C69.6412 82.0798 69.3998 82.9951 69.1811 83.9158C68.7631 85.6754 68.3321 87.4457 68.0413 89.2311C67.3315 92.966 67.5621 96.8162 68.7129 100.442C71.0192 107.214 76.6862 111.492 83.6096 113.001C83.8981 113.084 84.1475 113.265 84.3128 113.513C84.4782 113.761 84.5489 114.06 84.5121 114.354C84.4753 114.649 84.3335 114.922 84.1121 115.122C83.8907 115.323 83.6042 115.439 83.304 115.45C75.3927 115.463 68.7682 109.479 66.1028 102.414C64.6808 98.4959 64.3518 94.2717 65.1503 90.1847Z" fill="#7F391F"/>
<path d="M113.206 93.7095C113.206 93.7095 113.121 94.4074 113.109 95.4821C113.04 97.8048 113.441 100.118 114.288 102.285C114.728 103.452 115.472 104.483 116.446 105.272C117.42 106.061 118.589 106.581 119.832 106.777C121.14 106.971 122.477 106.814 123.703 106.323C124.929 105.832 125.999 105.025 126.803 103.986C128.306 102.167 129.463 100.094 130.22 97.867C130.616 96.7604 130.796 96.0098 130.796 96.0098C124.841 97.3044 118.616 96.4903 113.206 93.7095V93.7095Z" fill="#9F2236"/>
<path d="M113.206 93.7095C113.206 93.7095 113.121 94.4074 113.109 95.4821C115.087 97.4398 117.552 98.8471 120.255 99.5623C124.381 100.608 128.45 98.821 130.22 97.867C130.616 96.7604 130.796 96.0098 130.796 96.0098C124.841 97.3044 118.616 96.4903 113.206 93.7095V93.7095Z" fill="white"/>
<path d="M114.289 102.285C114.728 103.452 115.473 104.483 116.447 105.272C117.421 106.061 118.59 106.581 119.833 106.777C121.141 106.971 122.478 106.814 123.704 106.323C124.93 105.832 126 105.025 126.803 103.985C125.863 103.398 124.805 103.021 123.702 102.881C122.599 102.741 121.479 102.841 120.419 103.175C120.419 103.175 118.205 101.327 114.289 102.285Z" fill="#FF6551"/>
<path d="M110.079 83.5819C113.435 82.1009 114.942 78.2093 113.445 74.8897C111.947 71.5701 108.012 70.0796 104.656 71.5606C101.299 73.0416 99.7921 76.9332 101.29 80.2528C102.787 83.5724 106.722 85.0629 110.079 83.5819Z" fill="white"/>
<path d="M111.832 81.3469C113.494 78.9328 112.862 75.6438 110.421 74.0008C107.98 72.3578 104.654 72.9828 102.993 75.397C101.331 77.811 101.963 81.1 104.404 82.743C106.845 84.3861 110.171 83.761 111.832 81.3469Z" fill="black"/>
<path d="M110.477 78.5592C110.636 78.8649 110.699 79.2104 110.66 79.5519C110.62 79.8934 110.479 80.2157 110.255 80.478C110.03 80.7403 109.732 80.9307 109.397 81.0253C109.063 81.1199 108.708 81.1144 108.377 81.0094C108.046 80.9045 107.754 80.7048 107.538 80.4357C107.322 80.1665 107.191 79.84 107.162 79.4974C107.134 79.1548 107.208 78.8115 107.377 78.511C107.546 78.2104 107.801 77.966 108.11 77.8087C108.315 77.7043 108.539 77.6409 108.769 77.6221C108.999 77.6033 109.231 77.6295 109.45 77.6992C109.67 77.7689 109.874 77.8807 110.05 78.0283C110.226 78.1758 110.371 78.3563 110.477 78.5592V78.5592Z" fill="white"/>
<path d="M147.989 84.6319C148.29 81.0092 145.565 77.8308 141.902 77.5328C138.238 77.2348 135.025 79.93 134.723 83.5528C134.422 87.1755 137.147 90.3539 140.81 90.6519C144.474 90.9499 147.687 88.2546 147.989 84.6319Z" fill="white"/>
<path d="M142.976 89.6106C145.738 88.5784 147.131 85.5272 146.088 82.7955C145.044 80.0639 141.959 78.6862 139.197 79.7184C136.434 80.7506 135.041 83.8018 136.085 86.5335C137.129 89.2651 140.214 90.6428 142.976 89.6106Z" fill="black"/>
<path d="M137.065 84.8822C137.081 85.1946 137.191 85.4952 137.38 85.746C137.569 85.9968 137.829 86.1865 138.127 86.2911C138.425 86.3958 138.747 86.4107 139.054 86.3339C139.361 86.2572 139.637 86.0922 139.849 85.86C140.061 85.6277 140.198 85.3385 140.244 85.029C140.29 84.7194 140.242 84.4035 140.106 84.1211C139.97 83.8386 139.752 83.6024 139.48 83.4422C139.209 83.2821 138.895 83.2052 138.579 83.2213C138.156 83.243 137.758 83.4301 137.474 83.7416C137.19 84.053 137.043 84.4633 137.065 84.8822Z" fill="white"/>
<path d="M30.5938 182.183L30.858 186.541H226.056L226.116 182.183H30.5938Z" fill="#864FF1"/>
<path d="M224.53 185.746C225.05 185.742 225.568 185.67 226.069 185.532L226.115 182.183H30.5938L30.81 185.746L224.53 185.746Z" fill="#864FF1"/>
<path d="M201.548 129.579V182.17H193.668L193.518 177.09L193.38 172.474L193.263 168.57L193.133 164.171L193.131 164.168L192.094 129.579H201.548Z" fill="#FF6551"/>
<path d="M213.624 125.116L211.443 172.473L211.329 174.939L211.23 177.089L210.998 182.17H201.547V125.116H213.624Z" fill="#864FF1"/>
<path d="M204.367 177.09H193.517L193.379 172.474H204.064C204.172 174.119 204.272 175.668 204.367 177.09Z" fill="#F7A845"/>
<path d="M214.321 177.09H201.547V172.474H214.018C214.126 174.119 214.227 175.668 214.321 177.09Z" fill="#2435A1"/>
<path d="M195.025 164.869V132.213C195.025 131.819 195.184 131.441 195.466 131.162C195.748 130.883 196.13 130.727 196.529 130.727H198.251C198.65 130.727 199.032 130.883 199.314 131.162C199.596 131.441 199.755 131.819 199.755 132.213V164.869C199.755 165.263 199.596 165.642 199.314 165.92C199.032 166.199 198.65 166.356 198.251 166.356H196.529C196.13 166.356 195.748 166.199 195.466 165.92C195.184 165.642 195.025 165.264 195.025 164.869V164.869Z" fill="#FF8D7E"/>
<path d="M203.684 128.33V168.978C203.684 169.977 204.503 170.788 205.514 170.788H207.494C208.505 170.788 209.324 169.977 209.324 168.978V128.33C209.324 127.33 208.505 126.52 207.494 126.52H205.514C204.503 126.52 203.684 127.33 203.684 128.33Z" fill="#A880F5"/>
<g style="mix-blend-mode:multiply" opacity="0.25">
<path d="M211.23 169.605V168.233C211.23 168.233 211.257 168.777 211.23 169.605Z" fill="#471E44"/>
</g>
<path d="M226.055 182.167V182.17H211L211.069 177.106L211.099 174.905L211.134 172.456L211.793 125.116L211.891 118.095H226.768L225.961 172.144L225.964 172.456L226.009 177.106L226.055 182.167Z" fill="#2435A1"/>
<path d="M226.009 177.106H211.07L211.135 172.458H225.966L226.009 177.106Z" fill="#F7A845"/>
<path d="M215.092 168.655V122.664C215.092 122.099 215.319 121.556 215.723 121.156C216.128 120.757 216.676 120.532 217.248 120.532H219.831C220.403 120.532 220.951 120.757 221.356 121.156C221.76 121.556 221.987 122.099 221.987 122.664V168.655C221.987 168.935 221.931 169.213 221.823 169.471C221.715 169.73 221.556 169.965 221.356 170.163C221.155 170.361 220.918 170.518 220.656 170.625C220.395 170.732 220.114 170.788 219.831 170.788H217.248C216.676 170.788 216.128 170.563 215.723 170.163C215.319 169.763 215.092 169.221 215.092 168.655V168.655Z" fill="#525FB5"/>
<g style="mix-blend-mode:multiply" opacity="0.23">
<path d="M200.717 129.579V182.197L201.547 182.17V129.579H200.717Z" fill="#471E44"/>
</g>
<path d="M210.516 125.116V182.167L211 182.17L211.792 125.116H210.516Z" fill="#243976"/>
<path d="M166.065 176.699L165.637 177.94L164.79 180.403L116.058 181.548L67.3255 180.403L66.0508 176.699C73.6553 176.577 81.2212 175.601 88.6029 173.79C99.7156 170.881 111.155 170.558 116.058 175.406C120.96 170.558 132.4 170.881 143.513 173.79C150.894 175.601 158.46 176.577 166.065 176.699V176.699Z" fill="#FFEBDD"/>
<path d="M165.41 182.194H66.7031V179.931H68.1276H165.41V182.194Z" fill="#FF6551"/>
<path d="M166.064 176.699L165.635 177.94C159.324 178.215 148.741 177.022 137.301 174.113C125.862 171.204 116.383 176.699 116.057 176.699V175.406C120.959 170.558 132.399 170.881 143.511 173.79C150.893 175.601 158.459 176.577 166.064 176.699V176.699Z" fill="#F5C6B1"/>
<path d="M66.0508 176.699L66.479 177.94C72.7903 178.215 83.3735 177.022 94.813 174.113C106.252 171.204 115.731 176.699 116.058 176.699V175.406C111.155 170.558 99.7156 170.881 88.6029 173.79C81.2212 175.601 73.6553 176.577 66.0508 176.699V176.699Z" fill="#F5C6B1"/>
<g style="mix-blend-mode:multiply" opacity="0.15">
<path d="M232.936 116.525L231.816 192.307H94.5879C139.042 179.464 196.155 156.313 232.936 116.525Z" fill="#29ABE2"/>
</g>
</svg>
