<svg width="258" height="207" viewBox="0 0 258 207" fill="none" xmlns="http://www.w3.org/2000/svg">
<path d="M53.1589 205.099C52.8335 204.772 52.5556 204.4 52.3339 203.994C51.8617 203.2 51.6112 202.292 51.6112 201.367V165.224H46.4526C38.246 165.214 30.3781 161.947 24.5746 156.139C18.7726 150.332 15.507 142.458 15.4985 134.245V30.9794C15.5072 22.7662 18.7725 14.8919 24.5746 9.08515C30.3781 3.27692 38.2464 0.0102036 46.4526 0.000244141H211.543C219.75 0.0103305 227.618 3.27684 233.421 9.08515C239.223 14.8919 242.489 22.7665 242.497 30.9794V134.245C242.489 142.458 239.223 150.332 233.421 156.139C227.618 161.947 219.749 165.214 211.543 165.224H100.334L60.9301 204.785C59.8302 205.909 58.3285 206.55 56.7564 206.566C55.4045 206.583 54.103 206.055 53.1456 205.099L53.1589 205.099ZM61.9298 160.06V188.805L93.9162 156.689C95.0032 155.57 96.4862 154.926 98.0439 154.896H211.545C217.018 154.896 222.267 152.72 226.137 148.847C230.007 144.974 232.181 139.721 232.181 134.244V30.9786C232.181 25.5016 230.007 20.2482 226.137 16.3751C222.267 12.5019 217.018 10.3263 211.545 10.3263H46.4549C40.9824 10.3263 35.7332 12.5021 31.8632 16.3751C27.9932 20.248 25.8193 25.5016 25.8193 30.9786V134.244C25.8193 139.721 27.9933 144.974 31.8632 148.847C35.733 152.721 40.9824 154.896 46.4549 154.896H56.7735C58.1412 154.896 59.4542 155.441 60.4217 156.409C61.3892 157.377 61.932 158.69 61.932 160.06L61.9298 160.06ZM170.271 82.6121C170.271 79.873 171.358 77.2462 173.293 75.3096C175.228 73.373 177.853 72.2851 180.59 72.2851C183.325 72.2851 185.95 73.373 187.885 75.3096C189.82 77.2462 190.907 79.8729 190.907 82.6121C190.907 85.3513 189.82 87.9781 187.885 89.9146C185.95 91.8512 183.325 92.9391 180.59 92.9391C177.853 92.9391 175.228 91.8512 173.293 89.9146C171.358 87.9781 170.271 85.3513 170.271 82.6121ZM118.679 82.6121C118.679 79.873 119.766 77.2462 121.701 75.3096C123.636 73.373 126.26 72.2851 128.997 72.2851C131.734 72.2851 134.359 73.373 136.294 75.3096C138.229 77.2462 139.316 79.8729 139.316 82.6121C139.316 85.3513 138.229 87.9781 136.294 89.9146C134.359 91.8512 131.734 92.9391 128.997 92.9391C126.26 92.9391 123.636 91.8512 121.701 89.9146C119.766 87.9781 118.679 85.3513 118.679 82.6121ZM67.0861 82.6121H67.0875C67.0875 79.873 68.1745 77.2462 70.1095 75.3096C72.0445 73.373 74.6691 72.2851 77.4046 72.2851C80.1416 72.2851 82.7663 73.373 84.7012 75.3096C86.6363 77.2462 87.7232 79.8729 87.7232 82.6121C87.7232 85.3513 86.6363 87.9781 84.7012 89.9146C82.7663 91.8512 80.1417 92.9391 77.4046 92.9391C74.6691 92.9391 72.0445 91.8512 70.1095 89.9146C68.1745 87.9781 67.0875 85.3513 67.0875 82.6121H67.0861Z" fill="#EDF0F2" fill-opacity="0.8"/>
</svg>
