<svg width="85" height="85" viewBox="0 0 85 85" fill="none" xmlns="http://www.w3.org/2000/svg">
<path d="M27.9866 71.0252C28.3435 71.1575 28.7399 70.9734 28.8727 70.6157C29.0041 70.2583 28.8206 69.8617 28.4631 69.7296L25.5898 68.6729C39.0237 64.9247 48.7814 58.0434 54.5936 48.1883C64.2962 31.7331 59.4595 12.4961 59.4094 12.3038C59.3133 11.9345 58.9371 11.7139 58.5683 11.8091L58.5629 11.8105C58.197 11.9086 57.9782 12.2837 58.0736 12.6503C58.1223 12.8373 62.8197 31.5201 53.4041 47.4869C47.8066 56.9781 38.3913 63.6498 25.4109 67.2936L27.2346 65.1877C27.4839 64.8995 27.4528 64.4635 27.1652 64.2141C26.9855 64.0579 26.7476 64.0124 26.5343 64.0695C26.4057 64.104 26.2857 64.1761 26.1918 64.2842L22.1978 68.896L27.9866 71.0252Z" fill="#BFC8EB"/>
</svg>
